<svg width="2043" height="184" viewBox="0 0 2043 184" fill="none" xmlns="http://www.w3.org/2000/svg">
<path d="M133.5 180H42.75V177.5C64.5 173.25 72.5 171.25 73.5 139.25C74 125 74 109.75 74 92C74 76.5 73.5 22.5 73.25 8.49999H68.25C35.25 8.49999 10.25 22.25 3.75 51.75H0.75L4.25 5.5H170.25L173.75 51.75H170.75C163.75 22 140 8.49999 106.25 8.49999H101.25C101 22.5 100.5 77.25 100.5 92.75C100.5 110.5 100.5 130.25 101 141C102.5 171.75 116 174.5 133.5 177.5V180ZM231.004 177.5V180H173.754V177.5C186.254 176 192.504 173.25 192.504 148V26.25C192.504 6.75 178.504 7.75 175.004 7.49999V5.24998L211.754 0.749998H212.754V86.25C219.754 75.5 232.504 67.5 250.004 67.5C268.754 67.5 286.754 75.5 286.754 96.5V155.75C286.754 176.5 296.504 176.25 305.004 177.75V180H246.754V177.25C255.254 176.5 266.254 176 266.254 155.25C266.254 133.25 266.254 125 266.004 102.5C265.754 83.5 259.504 72.5 242.254 72.5C231.004 72.5 219.004 79 215.004 96.25C213.254 104 212.254 113.25 212.254 128.5C212.254 138 212.504 150.5 212.754 159C213.004 174 221.504 176 231.004 177.5ZM413.693 151.75L416.693 152.5C415.693 165.25 402.693 183.75 372.943 183.75C334.693 183.75 314.443 159.25 314.443 127.5C314.443 97.5 333.443 67.75 371.193 67.75C399.693 67.75 414.943 86.75 416.443 107.25H339.193C338.443 112.5 338.193 118.25 338.193 124.5C338.193 165.75 363.943 176 379.693 176C400.193 176 410.943 164.5 413.693 151.75ZM339.693 103.25H395.193C394.693 87 385.943 71 370.193 71C353.693 71 343.693 83 339.693 103.25ZM532.689 180H491.689V177.5C512.689 173.75 519.189 169.75 520.689 142.25C521.189 131.25 521.439 109.75 521.439 92C521.439 76.5 521.439 60.5 521.189 46.75C520.439 17.5 517.189 11.5 495.689 7.75V5.5H529.689C541.689 5.5 555.689 4.99999 570.189 4.99999C588.189 4.99999 600.939 7.49999 611.189 13C623.439 19.75 631.939 30 631.939 46.5C631.939 69 616.939 80.75 594.189 85C623.939 86.75 646.189 103.5 646.189 133.75C646.189 154.25 635.689 165.5 625.689 171.75C613.189 179.5 596.689 181.25 578.689 181.25C557.939 181.25 543.439 180 532.689 180ZM548.189 85.25C562.439 85.25 576.689 84 584.689 79.75C596.689 73.75 602.189 61.75 602.189 46.75C602.189 34 598.439 23.25 589.189 16.25C581.689 10.5 569.439 7.99999 559.689 7.99999C555.689 7.99999 551.939 8.24999 548.689 8.49999C548.189 17.5 547.939 31.75 547.939 46C547.939 60.25 547.939 73.25 548.189 85.25ZM547.939 89C547.939 110 547.939 135.5 548.189 146.25C548.689 170.5 563.689 177.25 578.439 177.25C597.439 177.25 614.439 160.25 614.439 132C614.439 115.75 606.689 104.5 595.189 96.25C586.689 90 574.439 88 561.939 88C556.939 88 551.939 88.5 547.939 89ZM727.82 116.25C721.32 123.75 713.82 127.25 702.57 132.75C692.32 138 684.07 145.25 684.07 158.25C684.07 170.25 692.82 177.5 703.07 177.5C720.07 177.5 726.82 163.5 727.57 145.25C727.82 137 727.82 123 727.82 116.25ZM772.82 168.5L774.82 169.5C773.82 176 765.07 183.5 749.82 183.5C734.82 183.5 727.82 176.75 727.07 168.75C721.57 174.75 712.57 183.75 694.32 183.75C673.82 183.75 662.32 172.75 662.32 156.25C662.32 142.25 671.82 131.5 687.57 127.5C698.07 124.75 710.07 123.75 718.07 119.5C725.07 115.5 727.82 111 727.82 98.5C727.82 84.25 720.82 71 707.32 71C700.82 71 696.07 73.25 693.57 76.5C691.07 79.25 689.32 85 688.32 88.25C687.07 93 685.07 97 678.32 97C673.57 97 669.07 93.75 669.07 87.25C669.07 78.25 680.32 67.75 707.07 67.75C733.82 67.75 748.32 76.75 748.32 94V151.25C748.32 171.25 751.82 176.75 761.57 176.75C766.82 176.75 771.07 173.25 772.82 168.5ZM790.881 183.5H787.631C787.881 169.75 788.381 172.75 788.381 147.75V22.5C788.381 8.24999 775.131 7.49999 771.881 7.24999V4.99999L807.381 0.749998H808.381V79.25C816.381 71.25 831.131 67.75 841.881 67.75C875.131 67.75 897.131 92.75 897.131 125.25C897.131 162.75 871.131 183.75 838.381 183.75C813.881 183.75 805.631 174.5 800.881 174.5C796.881 174.5 793.631 179 790.881 183.5ZM837.881 180.25C861.631 180.25 873.381 152.25 873.381 125.5C873.381 97 857.381 71.25 837.381 71.25C825.631 71.25 817.131 78 811.881 92C809.381 99 807.631 111.25 807.631 123.25C807.631 139 808.381 152.25 811.881 161.5C816.881 175.25 826.881 180.25 837.881 180.25ZM1003.92 151.75L1006.67 152.5C1006.17 164.5 995.42 183.75 966.42 183.75C929.92 183.75 908.92 160.75 908.92 128.5C908.92 96 929.42 68 966.67 68C997.92 68 1003.92 83.25 1003.92 88.25C1003.92 93.75 999.67 98.25 993.42 98.25C984.92 98.25 983.17 90.25 980.92 83.75C978.92 78.5 975.92 71 964.67 71C949.42 71 932.67 92 932.67 126C932.67 166 957.42 176 972.67 176C993.17 176 1002.17 163.75 1003.92 151.75ZM1133.67 125.75C1133.67 160.25 1101.42 183.75 1073.17 183.75C1038.92 183.75 1012.42 156.25 1012.42 125.5C1012.42 96.5 1037.67 67.75 1073.17 67.75C1110.42 67.75 1133.67 95.75 1133.67 125.75ZM1073.17 180C1099.92 180 1109.92 151.75 1109.92 125.75C1109.92 95.5 1094.42 71.25 1073.17 71.25C1047.17 71.25 1036.17 97 1036.17 125.5C1036.17 155.5 1051.67 180 1073.17 180ZM1239.76 151.75L1242.51 152.5C1242.01 164.5 1231.26 183.75 1202.26 183.75C1165.76 183.75 1144.76 160.75 1144.76 128.5C1144.76 96 1165.26 68 1202.51 68C1233.76 68 1239.76 83.25 1239.76 88.25C1239.76 93.75 1235.51 98.25 1229.26 98.25C1220.76 98.25 1219.01 90.25 1216.76 83.75C1214.76 78.5 1211.76 71 1200.51 71C1185.26 71 1168.51 92 1168.51 126C1168.51 166 1193.26 176 1208.51 176C1229.01 176 1238.01 163.75 1239.76 151.75ZM1375.01 180H1313.26V177.5C1320.51 177.25 1327.76 175.25 1327.76 170.25C1327.76 165.5 1323.26 161 1316.01 152.5C1311.51 147.5 1301.51 136 1291.51 125.75L1285.26 131.75C1285.26 136 1285.01 141.25 1285.01 146C1285.01 150.75 1285.26 155.5 1285.51 159.25C1286.76 175.5 1295.26 176.25 1303.51 177.5V180H1244.76V177.5C1261.26 174.75 1265.01 171.25 1265.01 145.75V32.25C1265.01 10.25 1259.01 9.49999 1246.51 7.99999V5.74999L1284.76 0.749998H1285.76C1285.51 13.25 1285.26 30.5 1285.26 40.75V127.5C1297.76 115.5 1308.51 104 1313.51 98.25C1318.51 92.75 1323.01 87.75 1323.01 82.5C1323.01 76.5 1317.01 74.25 1309.01 73.25V71H1358.01V73.25C1344.26 75.25 1336.26 82.75 1325.01 93.25C1319.26 98.5 1313.01 104.5 1305.01 112.25C1320.51 129.5 1330.51 142 1342.76 154.75C1357.01 169.75 1361.76 176 1375.01 177.5V180ZM1563.92 180H1473.17V177.5C1494.92 173.25 1502.92 171.25 1503.92 139.25C1504.42 125 1504.42 109.75 1504.42 92C1504.42 76.5 1503.92 22.5 1503.67 8.49999H1498.67C1465.67 8.49999 1440.67 22.25 1434.17 51.75H1431.17L1434.67 5.5H1600.67L1604.17 51.75H1601.17C1594.17 22 1570.42 8.49999 1536.67 8.49999H1531.67C1531.42 22.5 1530.92 77.25 1530.92 92.75C1530.92 110.5 1530.92 130.25 1531.42 141C1532.92 171.75 1546.42 174.5 1563.92 177.5V180ZM1706.18 125.75C1706.18 160.25 1673.93 183.75 1645.68 183.75C1611.43 183.75 1584.93 156.25 1584.93 125.5C1584.93 96.5 1610.18 67.75 1645.68 67.75C1682.93 67.75 1706.18 95.75 1706.18 125.75ZM1645.68 180C1672.43 180 1682.43 151.75 1682.43 125.75C1682.43 95.5 1666.93 71.25 1645.68 71.25C1619.68 71.25 1608.68 97 1608.68 125.5C1608.68 155.5 1624.18 180 1645.68 180ZM1774.27 180H1716.77V177.5C1729.52 176 1735.27 174.25 1735.27 153.5V104.25C1735.27 93.25 1734.77 74.25 1720.52 74.25H1715.77V71.75L1751.52 66.25H1752.27L1755.52 89.25C1760.77 79.25 1768.77 67.75 1786.77 67.75C1801.02 67.75 1805.27 76.25 1805.27 80.25C1805.27 85.5 1802.27 90.5 1796.27 90.5C1790.27 90.5 1788.02 86.75 1785.27 83C1782.77 79.5 1780.27 75.75 1775.27 75.75C1767.02 75.75 1760.27 84.5 1757.52 95.5C1756.02 102.25 1755.02 113.25 1755.02 128.5C1755.02 138 1755.27 150 1755.52 158.5C1755.77 174.25 1765.27 177 1774.27 177.5V180ZM1904.31 151.75L1907.06 152.5C1906.56 164.5 1895.81 183.75 1866.81 183.75C1830.31 183.75 1809.31 160.75 1809.31 128.5C1809.31 96 1829.81 68 1867.06 68C1898.31 68 1904.31 83.25 1904.31 88.25C1904.31 93.75 1900.06 98.25 1893.81 98.25C1885.31 98.25 1883.56 90.25 1881.31 83.75C1879.31 78.5 1876.31 71 1865.06 71C1849.81 71 1833.06 92 1833.06 126C1833.06 166 1857.81 176 1873.06 176C1893.56 176 1902.56 163.75 1904.31 151.75ZM1968.06 177.5V180H1910.81V177.5C1923.31 176 1929.56 173.25 1929.56 148V26.25C1929.56 6.75 1915.56 7.75 1912.06 7.49999V5.24998L1948.81 0.749998H1949.81V86.25C1956.81 75.5 1969.56 67.5 1987.06 67.5C2005.81 67.5 2023.81 75.5 2023.81 96.5V155.75C2023.81 176.5 2033.56 176.25 2042.06 177.75V180H1983.81V177.25C1992.31 176.5 2003.31 176 2003.31 155.25C2003.31 133.25 2003.31 125 2003.06 102.5C2002.81 83.5 1996.56 72.5 1979.31 72.5C1968.06 72.5 1956.06 79 1952.06 96.25C1950.31 104 1949.31 113.25 1949.31 128.5C1949.31 138 1949.56 150.5 1949.81 159C1950.06 174 1958.56 176 1968.06 177.5Z" fill="white"/>
</svg>
