<svg width="399" height="46" viewBox="0 0 399 46" fill="none" xmlns="http://www.w3.org/2000/svg">
<path d="M32.5 7.9001C32.5 11.3001 29.3 13.8001 26 13.8001C22.8 13.8001 19.9 12.1001 17.1 10.6001L16.4 10.2001C16 10.4001 15.7 10.6001 15.7 11.0001L15.6 11.3001C15.6 11.5001 15.8 11.7001 16 11.8001C16.8 12.7001 18.3 13.5001 19.3 14.2001C21.1 15.4001 23.1 16.7001 23.1 19.1001C23.1 21.1001 21.8 23.0001 20.1 24.1001L17.3 26.0001L18.7 26.8001C21.2 28.2001 24.6 30.4001 27.5 30.4001C30 30.4001 31.3 28.2001 31.9 26.0001L32.4 26.2001C31.7 28.8001 30.4 31.2001 28.3 32.9001C26.1 34.7001 23.5 35.5001 20.8 35.5001C18.8 35.5001 16.8 35.0001 14.9 34.2001C12.3 33.2001 10 31.6001 7.7 30.1001C6.4 29.2001 5 28.3001 3.4 28.3001C1 28.3001 0.8 30.7001 0.6 32.5001H0.1C0.1 30.3001 0.7 28.2001 2.1 26.4001C3.7 24.5001 6.2 23.2001 8.8 23.2001C11.7 23.2001 14.4 24.3001 16.8 25.7001C17.2 25.5001 17.8 25.2001 17.8 24.6001C17.8 23.2001 15.2 22.1001 14.2 21.5001C12.5 20.5001 10.7 19.3001 10.7 17.1001C10.7 14.7001 12.4 12.8001 14.2 11.4001L15.9 10.0001L15.1 9.6001C12.2 8.1001 9.4 6.7001 6.1 6.7001C3.3 6.7001 1 8.4001 1 11.3001C1 14.1001 3.8 15.9001 6.3 15.9001C7.4 15.9001 8.4 15.6001 9.2 15.1001L9.5 15.5001C8.5 16.2001 7.4 16.5001 6.3 16.5001C2.4 16.5001 0 13.9001 0 10.0001C0 7.4001 1.3 4.7001 3.2 2.9001C5.4 0.800095 8.5 9.60827e-05 11.5 9.60827e-05C14.1 9.60827e-05 16.9 0.600097 19.2 1.9001C21.6 3.2001 23.8 4.9001 25.8 6.6001C26.8 7.50009 28.6 9.2001 30 9.2001C31 9.2001 31.7 8.5001 31.7 7.6001C31.7 4.8001 28.4 3.4001 26.3 2.7001L26.5 2.1001C27.9 2.5001 29.3 3.0001 30.4 4.0001C31.5 4.9001 32.5 6.3001 32.5 7.9001ZM54.4148 19.1001C54.4148 22.7001 54.4148 26.4001 54.1148 30.0001C53.8148 35.4001 52.0148 38.4001 47.7148 41.5001C45.4148 43.2001 42.9148 44.6001 40.4148 45.8001L40.1148 45.3001C42.1148 44.3001 44.4148 43.1001 45.4148 41.0001C46.8148 37.8001 47.0148 33.5001 47.0148 30.1001V18.3001C47.0148 17.1001 46.8148 14.5001 45.1148 14.5001C44.6148 14.5001 44.2148 14.7001 43.8148 15.0001L42.9148 15.8001V28.3001C42.9148 29.1001 43.1148 30.7001 44.2148 30.7001C44.6148 30.7001 44.9148 30.5001 45.2148 30.3001C45.3148 30.2001 45.5148 30.2001 45.6148 30.1001L45.7148 30.5001C44.5148 31.2001 43.4148 32.1001 42.3148 33.0001C41.4148 33.8001 40.4148 34.5001 39.5148 35.4001C37.9148 33.2001 35.9148 31.8001 33.4148 30.8001V30.5001C35.2148 30.3001 35.7148 29.8001 35.7148 27.9001V13.8001C35.7148 11.8001 35.6148 9.8001 35.1148 7.9001C34.6148 6.1001 33.9148 4.6001 33.0148 3.0001L32.7148 2.40009L33.1148 2.2001C34.1148 3.80009 35.0148 5.5001 35.6148 7.2001C36.3148 5.2001 37.3148 3.3001 39.3148 2.2001C41.8148 0.900096 44.8148 0.500096 47.6148 0.500096H48.4148V1.2001H47.6148C43.2148 1.2001 42.9148 4.6001 42.9148 8.2001V15.0001L50.5148 9.4001L51.7148 10.9001C54.0148 13.5001 54.4148 15.6001 54.4148 19.1001ZM76.0988 28.3001L75.1988 28.9001L69.4988 33.0001C68.3988 33.7001 67.4988 34.6001 66.5988 35.5001C64.1988 34.4001 61.6988 33.1001 59.9988 31.0001C58.9988 29.7001 58.5988 28.1001 58.3988 26.5001C58.1988 24.8001 58.0988 23.0001 58.0988 21.3001C58.0988 17.0001 58.0988 14.5001 62.3988 12.7001L70.1988 9.3001L75.4988 17.7001L64.7988 24.4001C65.6988 27.1001 68.2988 29.7001 71.2988 29.7001C72.9988 29.7001 74.4988 28.9001 75.8988 27.9001L76.0988 28.3001ZM69.3988 20.6001L64.7988 12.6001C64.5988 13.8001 64.5988 15.0001 64.5988 16.3001V20.3001C64.5988 20.5001 64.4988 21.0001 64.4988 21.2001C64.4988 21.7001 64.5988 22.3001 64.5988 22.8001L64.6988 23.6001L69.3988 20.6001ZM130.025 12.6001C127.725 12.8001 125.525 13.3001 123.425 14.1001C126.125 15.9001 129.025 17.9001 129.025 21.5001C129.025 25.7001 126.025 29.2001 122.725 31.5001C120.025 33.4001 116.025 35.5001 112.625 35.5001C109.425 35.5001 106.525 33.8001 104.225 31.8001L101.425 29.4001C100.425 28.6001 99.0246 27.4001 97.6246 27.4001H97.5246C95.4246 27.6001 94.8246 29.5001 94.6246 31.3001L94.0246 31.2001C94.2246 29.3001 94.9246 27.6001 96.2246 26.2001C97.8246 24.5001 100.125 23.3001 102.425 23.3001H103.425C104.225 19.8001 104.325 16.1001 104.325 12.5001C104.325 9.9001 104.125 7.0001 102.625 4.8001C101.925 3.7001 100.625 2.7001 99.2246 2.7001H99.0246C97.5246 2.9001 95.7246 3.9001 95.7246 5.5001C95.7246 7.0001 97.1246 7.9001 98.3246 8.5001C100.225 9.7001 101.625 11.4001 101.625 13.8001C101.625 18.0001 98.1246 21.2001 94.1246 21.8001L94.0246 21.3001L94.5246 21.2001C95.9246 20.9001 97.8246 20.2001 97.9246 18.5001C97.9246 17.9001 97.6246 17.5001 97.1246 17.2001L96.1246 16.5001C94.0246 15.1001 92.7246 12.9001 92.7246 10.3001C92.7246 8.0001 93.7246 5.6001 95.4246 4.0001C97.5246 2.0001 100.525 0.800095 103.425 0.800095C105.625 0.800095 107.725 1.2001 109.525 2.40009C110.825 3.2001 111.725 4.3001 112.425 5.6001C112.625 4.50009 113.025 3.3001 113.925 2.5001C115.325 1.2001 117.425 0.900096 119.225 0.900096C121.125 0.900096 123.025 1.4001 124.425 2.7001C125.825 3.9001 126.225 5.6001 126.325 7.3001L126.425 9.3001C126.525 11.3001 127.425 12.2001 129.425 12.2001C129.625 12.2001 129.825 12.2001 130.025 12.1001V12.6001ZM124.725 13.1001C124.525 13.0001 124.225 13.0001 124.025 12.9001C122.325 12.5001 120.625 12.1001 119.425 10.7001C118.525 9.6001 118.325 8.1001 118.225 6.7001C118.125 5.2001 117.725 2.3001 115.625 2.3001H115.525C113.925 2.5001 112.925 4.6001 112.925 6.1001C112.925 6.7001 112.925 7.3001 113.025 7.9001C113.125 8.7001 113.125 9.6001 113.225 10.4001V11.4001C113.225 13.1001 112.925 14.9001 112.425 16.4001L124.725 13.1001ZM123.825 27.6001C123.825 24.9001 121.725 22.3001 119.925 20.6001C117.925 18.7001 115.625 17.1001 112.825 16.6001L112.325 16.8001C111.225 18.7001 109.525 20.1001 107.625 21.2001L105.025 22.6001C104.625 22.8001 104.225 23.1001 103.925 23.3001C106.425 23.7001 108.625 24.8001 110.525 26.5001L112.625 28.4001C114.325 30.0001 116.925 32.1001 119.425 32.1001C121.925 32.1001 123.825 30.0001 123.825 27.6001ZM153.722 30.3001C153.522 30.4001 153.422 30.5001 153.322 30.5001L149.922 33.3001C149.122 34.0001 148.322 34.7001 147.722 35.5001C145.322 34.0001 143.622 32.4001 143.222 29.6001C142.322 30.3001 141.522 31.0001 140.722 31.7001L138.722 33.5001C138.022 34.1001 137.422 34.8001 136.722 35.5001C132.922 32.6001 132.122 31.2001 132.122 26.5001V20.4001C132.122 16.2001 133.222 15.6001 136.922 14.1001C138.222 13.5001 139.522 13.0001 140.722 12.3001C141.822 11.7001 142.922 11.0001 143.922 10.3001L144.522 9.9001C145.522 11.0001 146.722 12.1001 148.022 13.0001C149.422 14.1001 151.122 14.7001 152.822 15.3001V15.6001L152.422 15.7001C150.322 16.0001 150.122 16.7001 150.122 18.9001V26.5001C150.122 27.5001 150.122 28.6001 150.622 29.6001C150.922 30.1001 151.422 30.7001 152.022 30.7001C152.522 30.6001 153.022 30.3001 153.422 30.0001L153.722 30.3001ZM143.222 28.9001V16.9001C141.722 16.0001 140.422 14.8001 139.422 13.4001L139.122 13.5001V25.8001C139.122 25.9001 139.022 26.2001 139.022 26.3001C139.022 27.7001 139.222 30.6001 140.722 30.6001C141.222 30.6001 141.722 30.2001 142.022 29.9001L142.722 29.3001C142.922 29.2001 143.022 29.0001 143.222 28.9001ZM175.006 20.1001C175.006 22.7001 175.006 25.6001 174.506 28.1001C174.106 29.6001 172.906 30.6001 171.406 31.1001L169.006 31.9001C166.806 32.6001 164.606 33.7001 163.106 35.5001C161.806 34.0001 160.206 32.8001 158.606 31.8001C157.206 30.8001 155.806 29.9001 154.306 29.3001V29.0001C154.906 29.0001 155.406 29.0001 155.906 28.6001C156.606 28.1001 156.606 27.4001 156.606 26.6001V10.4001C156.606 7.4001 155.806 4.7001 154.206 2.1001L153.906 1.6001L154.206 1.3001C155.306 2.6001 156.106 4.1001 156.606 5.7001C157.406 4.1001 158.606 2.9001 160.306 2.1001C162.506 1.0001 164.906 0.600097 167.306 0.600097C168.006 0.600097 168.706 0.700096 169.406 0.700096V1.3001C169.006 1.3001 168.506 1.2001 168.006 1.2001C166.706 1.2001 165.106 1.9001 164.406 3.0001C163.706 4.1001 163.506 5.9001 163.506 7.3001C163.506 7.6001 163.606 8.0001 163.606 8.2001V14.7001L166.106 13.1001C167.806 12.0001 169.506 10.9001 171.006 9.6001C171.206 9.8001 171.406 10.0001 171.506 10.2001L173.506 12.3001C174.406 13.2001 174.806 14.3001 174.906 15.5001C175.006 16.2001 175.006 17.1001 175.006 17.8001V20.1001ZM167.906 30.9001V17.4001C167.906 16.6001 167.906 15.8001 167.506 15.1001C167.206 14.6001 166.706 14.3001 166.206 14.3001C165.206 14.3001 164.406 14.9001 163.606 15.4001V27.4001L164.006 27.7001C164.706 28.2001 165.406 28.8001 166.106 29.4001L167.006 30.2001C167.306 30.5001 167.606 30.7001 167.906 30.9001ZM196.302 28.9001L195.702 29.2001C192.702 31.0001 189.802 32.8001 187.102 35.0001L186.402 35.5001C186.102 35.3001 185.802 35.0001 185.402 34.8001L181.402 32.1001C180.102 31.1001 179.402 29.7001 179.102 28.2001C179.002 27.2001 178.802 25.9001 178.802 24.8001C178.802 24.1001 178.902 23.2001 178.902 22.5001C178.902 22.1001 178.802 21.5001 178.802 21.0001C178.802 19.3001 179.002 16.8001 179.402 15.6001C179.902 14.0001 181.202 13.2001 182.702 12.8001L192.202 9.7001L195.702 16.8001C194.702 17.4001 193.802 17.9001 192.802 18.3001C191.802 18.8001 190.802 19.4001 189.802 19.9001L189.502 19.3001C189.202 18.5001 188.902 17.7001 188.502 16.9001L187.402 14.4001L186.302 12.1001L185.802 12.2001V22.8001C185.802 24.7001 186.302 26.7001 187.902 28.1001C189.002 29.1001 190.602 29.8001 192.102 29.8001C193.502 29.8001 194.902 29.2001 196.102 28.5001L196.302 28.9001ZM216.489 22.9001C216.489 24.7001 216.389 26.9001 215.989 28.2001C215.389 29.7001 214.089 30.5001 212.589 30.9001C209.589 31.7001 207.189 32.3001 205.889 35.5001C203.289 32.7001 199.889 30.8001 196.289 29.7001V29.4001C197.989 29.0001 198.189 28.5001 198.189 26.8001V13.4001C198.389 13.5001 198.689 13.5001 198.889 13.5001C199.089 13.5001 199.389 13.6001 199.589 13.6001C201.089 13.6001 202.789 13.2001 204.289 13.0001C206.989 12.4001 209.489 11.4001 211.489 9.4001C212.789 10.4001 214.089 11.5001 215.089 12.9001C215.789 13.8001 216.089 14.8001 216.189 16.0001C216.489 17.7001 216.489 19.5001 216.489 21.2001V22.9001ZM209.389 30.2001V21.3001C209.389 17.8001 209.089 14.3001 205.189 13.4001V27.3001L209.389 30.2001ZM237.611 28.9001L237.011 29.2001C234.011 31.0001 231.111 32.8001 228.411 35.0001L227.711 35.5001C227.411 35.3001 227.111 35.0001 226.711 34.8001L222.711 32.1001C221.411 31.1001 220.711 29.7001 220.411 28.2001C220.311 27.2001 220.111 25.9001 220.111 24.8001C220.111 24.1001 220.211 23.2001 220.211 22.5001C220.211 22.1001 220.111 21.5001 220.111 21.0001C220.111 19.3001 220.311 16.8001 220.711 15.6001C221.211 14.0001 222.511 13.2001 224.011 12.8001L233.511 9.7001L237.011 16.8001C236.011 17.4001 235.111 17.9001 234.111 18.3001C233.111 18.8001 232.111 19.4001 231.111 19.9001L230.811 19.3001C230.511 18.5001 230.211 17.7001 229.811 16.9001L228.711 14.4001L227.611 12.1001L227.111 12.2001V22.8001C227.111 24.7001 227.611 26.7001 229.211 28.1001C230.311 29.1001 231.911 29.8001 233.411 29.8001C234.811 29.8001 236.211 29.2001 237.411 28.5001L237.611 28.9001ZM262.898 29.7501C259.498 31.9501 258.048 33.7001 255.848 35.2501C251.248 32.6001 254.398 25.0501 250.148 22.0501L248.148 23.2501V27.5501C248.148 28.6501 248.148 30.1001 249.248 30.1001C249.598 30.1001 249.998 30.0001 250.448 29.7501V30.5501C247.798 31.9501 246.048 33.4001 244.648 35.2501C243.098 33.0501 240.998 31.2001 238.798 30.8501V30.1001C240.548 30.1001 241.348 29.7501 241.348 28.0001V11.6001C241.348 9.3001 239.548 4.7001 238.448 3.9001L238.798 3.1501C240.248 4.2501 240.998 6.1001 241.348 7.5501C241.348 2.7001 248.148 1.4001 251.998 1.4001H253.298V2.1501C250.148 2.1501 248.148 3.9001 248.148 6.1001V15.5501L255.498 10.0501C257.698 11.1501 259.798 13.5001 259.798 14.8001C259.798 15.1501 259.498 15.4501 259.148 15.5501L255.498 18.1001C257.698 19.9501 258.398 21.4001 259.148 23.6001C259.698 25.0501 259.348 29.6501 261.448 29.6501C261.798 29.6501 262.348 29.3001 262.898 29.1001V29.7501ZM254.098 18.4501C253.098 17.4501 252.098 15.1501 250.448 15.1501C249.798 15.1501 249.148 15.4501 248.148 16.3501V22.5001L254.098 18.4501ZM310.869 7.9001C310.869 11.3001 307.669 13.8001 304.369 13.8001C301.169 13.8001 298.269 12.1001 295.469 10.6001L294.769 10.2001C294.369 10.4001 294.069 10.6001 294.069 11.0001L293.969 11.3001C293.969 11.5001 294.169 11.7001 294.369 11.8001C295.169 12.7001 296.669 13.5001 297.669 14.2001C299.469 15.4001 301.469 16.7001 301.469 19.1001C301.469 21.1001 300.169 23.0001 298.469 24.1001L295.669 26.0001L297.069 26.8001C299.569 28.2001 302.969 30.4001 305.869 30.4001C308.369 30.4001 309.669 28.2001 310.269 26.0001L310.769 26.2001C310.069 28.8001 308.769 31.2001 306.669 32.9001C304.469 34.7001 301.869 35.5001 299.169 35.5001C297.169 35.5001 295.169 35.0001 293.269 34.2001C290.669 33.2001 288.369 31.6001 286.069 30.1001C284.769 29.2001 283.369 28.3001 281.769 28.3001C279.369 28.3001 279.169 30.7001 278.969 32.5001H278.469C278.469 30.3001 279.069 28.2001 280.469 26.4001C282.069 24.5001 284.569 23.2001 287.169 23.2001C290.069 23.2001 292.769 24.3001 295.169 25.7001C295.569 25.5001 296.169 25.2001 296.169 24.6001C296.169 23.2001 293.569 22.1001 292.569 21.5001C290.869 20.5001 289.069 19.3001 289.069 17.1001C289.069 14.7001 290.769 12.8001 292.569 11.4001L294.269 10.0001L293.469 9.6001C290.569 8.1001 287.769 6.7001 284.469 6.7001C281.669 6.7001 279.369 8.4001 279.369 11.3001C279.369 14.1001 282.169 15.9001 284.669 15.9001C285.769 15.9001 286.769 15.6001 287.569 15.1001L287.869 15.5001C286.869 16.2001 285.769 16.5001 284.669 16.5001C280.769 16.5001 278.369 13.9001 278.369 10.0001C278.369 7.4001 279.669 4.7001 281.569 2.9001C283.769 0.800095 286.869 9.60827e-05 289.869 9.60827e-05C292.469 9.60827e-05 295.269 0.600097 297.569 1.9001C299.969 3.2001 302.169 4.9001 304.169 6.6001C305.169 7.50009 306.969 9.2001 308.369 9.2001C309.369 9.2001 310.069 8.5001 310.069 7.6001C310.069 4.8001 306.769 3.4001 304.669 2.7001L304.869 2.1001C306.269 2.5001 307.669 3.0001 308.769 4.0001C309.869 4.9001 310.869 6.3001 310.869 7.9001ZM333.286 22.9001C333.286 24.7001 333.186 26.9001 332.786 28.2001C332.186 29.7001 330.886 30.5001 329.386 30.9001C326.386 31.7001 323.986 32.3001 322.686 35.5001C320.086 32.7001 316.686 30.8001 313.086 29.7001V29.4001C314.786 29.0001 314.986 28.5001 314.986 26.8001V13.4001C315.186 13.5001 315.486 13.5001 315.686 13.5001C315.886 13.5001 316.186 13.6001 316.386 13.6001C317.886 13.6001 319.586 13.2001 321.086 13.0001C323.786 12.4001 326.286 11.4001 328.286 9.4001C329.586 10.4001 330.886 11.5001 331.886 12.9001C332.586 13.8001 332.886 14.8001 332.986 16.0001C333.286 17.7001 333.286 19.5001 333.286 21.2001V22.9001ZM326.186 30.2001V21.3001C326.186 17.8001 325.886 14.3001 321.986 13.4001V27.3001L326.186 30.2001ZM356.607 15.7001L351.507 20.8001L347.907 14.6001L346.407 16.1001V25.7001C346.407 27.5001 347.407 29.7001 349.507 29.7001C350.907 29.7001 352.207 28.4001 353.207 27.6001L353.607 27.2001L354.007 27.7001C352.807 28.7001 351.607 29.7001 350.407 30.6001L345.407 34.8001L344.707 35.5001C342.207 32.8001 339.707 30.9001 336.307 29.9001V29.4001H336.807C338.807 29.4001 339.207 28.0001 339.207 26.2001V18.6001C339.207 17.3001 339.107 14.8001 337.307 14.8001C336.707 14.8001 336.307 15.1001 335.907 15.4001C335.807 15.5001 335.607 15.6001 335.507 15.7001L335.107 15.3001L337.307 13.3001C338.107 12.7001 340.907 10.0001 341.507 9.6001L341.907 9.2001C344.707 10.5001 346.307 12.2001 346.407 15.3001C347.907 14.0001 349.407 12.7001 350.707 11.1001L351.907 9.7001C352.107 9.5001 352.307 9.4001 352.407 9.2001L356.607 15.7001ZM376.429 28.9001L375.829 29.2001C372.829 31.0001 369.929 32.8001 367.229 35.0001L366.529 35.5001C366.229 35.3001 365.929 35.0001 365.529 34.8001L361.529 32.1001C360.229 31.1001 359.529 29.7001 359.229 28.2001C359.129 27.2001 358.929 25.9001 358.929 24.8001C358.929 24.1001 359.029 23.2001 359.029 22.5001C359.029 22.1001 358.929 21.5001 358.929 21.0001C358.929 19.3001 359.129 16.8001 359.529 15.6001C360.029 14.0001 361.329 13.2001 362.829 12.8001L372.329 9.7001L375.829 16.8001C374.829 17.4001 373.929 17.9001 372.929 18.3001C371.929 18.8001 370.929 19.4001 369.929 19.9001L369.629 19.3001C369.329 18.5001 369.029 17.7001 368.629 16.9001L367.529 14.4001L366.429 12.1001L365.929 12.2001V22.8001C365.929 24.7001 366.429 26.7001 368.029 28.1001C369.129 29.1001 370.729 29.8001 372.229 29.8001C373.629 29.8001 375.029 29.2001 376.229 28.5001L376.429 28.9001ZM398.116 19.1001C398.116 22.7001 398.116 26.4001 397.816 30.0001C397.516 35.4001 395.716 38.4001 391.416 41.5001C389.116 43.2001 386.616 44.6001 384.116 45.8001L383.816 45.3001C385.816 44.3001 388.116 43.1001 389.116 41.0001C390.516 37.8001 390.716 33.5001 390.716 30.1001V18.3001C390.716 17.1001 390.516 14.5001 388.816 14.5001C388.316 14.5001 387.916 14.7001 387.516 15.0001L386.616 15.8001V28.3001C386.616 29.1001 386.816 30.7001 387.916 30.7001C388.316 30.7001 388.616 30.5001 388.916 30.3001C389.016 30.2001 389.216 30.2001 389.316 30.1001L389.416 30.5001C388.216 31.2001 387.116 32.1001 386.016 33.0001C385.116 33.8001 384.116 34.5001 383.216 35.4001C381.616 33.2001 379.616 31.8001 377.116 30.8001V30.5001C378.916 30.3001 379.416 29.8001 379.416 27.9001V13.8001C379.416 11.8001 379.316 9.8001 378.816 7.9001C378.316 6.1001 377.616 4.6001 376.716 3.0001L376.416 2.40009L376.816 2.2001C377.816 3.80009 378.716 5.5001 379.316 7.2001C380.016 5.2001 381.016 3.3001 383.016 2.2001C385.516 0.900096 388.516 0.500096 391.316 0.500096H392.116V1.2001H391.316C386.916 1.2001 386.616 4.6001 386.616 8.2001V15.0001L394.216 9.4001L395.416 10.9001C397.716 13.5001 398.116 15.6001 398.116 19.1001Z" fill="#A98105"/>
</svg>
