<svg width="1999" height="237" viewBox="0 0 1999 237" fill="none" xmlns="http://www.w3.org/2000/svg">
<g filter="url(#filter0_d_292_2)">
<path d="M166.5 39.5C166.5 56.5 150.5 69 134 69C118 69 103.5 60.5 89.5 53L86 51C84 52 82.5 53 82.5 55L82 56.5C82 57.5 83 58.5 84 59C88 63.5 95.5 67.5 100.5 71C109.5 77 119.5 83.5 119.5 95.5C119.5 105.5 113 115 104.5 120.5L90.5 130L97.5 134C110 141 127 152 141.5 152C154 152 160.5 141 163.5 130L166 131C162.5 144 156 156 145.5 164.5C134.5 173.5 121.5 177.5 108 177.5C98 177.5 88 175 78.5 171C65.5 166 54 158 42.5 150.5C36 146 29 141.5 21 141.5C9 141.5 8 153.5 7 162.5H4.5C4.5 151.5 7.5 141 14.5 132C22.5 122.5 35 116 48 116C62.5 116 76 121.5 88 128.5C90 127.5 93 126 93 123C93 116 80 110.5 75 107.5C66.5 102.5 57.5 96.5 57.5 85.5C57.5 73.5 66 64 75 57L83.5 50L79.5 48C65 40.5 51 33.5 34.5 33.5C20.5 33.5 9 42 9 56.5C9 70.5 23 79.5 35.5 79.5C41 79.5 46 78 50 75.5L51.5 77.5C46.5 81 41 82.5 35.5 82.5C16 82.5 4 69.5 4 50C4 37 10.5 23.5 20 14.5C31 3.99999 46.5 -7.86781e-06 61.5 -7.86781e-06C74.5 -7.86781e-06 88.5 3 100 9.49999C112 16 123 24.5 133 33C138 37.5 147 46 154 46C159 46 162.5 42.5 162.5 38C162.5 24 146 17 135.5 13.5L136.5 10.5C143.5 12.5 150.5 15 156 20C161.5 24.5 166.5 31.5 166.5 39.5ZM276.074 95.5C276.074 113.5 276.074 132 274.574 150C273.074 177 264.074 192 242.574 207.5C231.074 216 218.574 223 206.074 229L204.574 226.5C214.574 221.5 226.074 215.5 231.074 205C238.074 189 239.074 167.5 239.074 150.5V91.5C239.074 85.5 238.074 72.5 229.574 72.5C227.074 72.5 225.074 73.5 223.074 75L218.574 79V141.5C218.574 145.5 219.574 153.5 225.074 153.5C227.074 153.5 228.574 152.5 230.074 151.5C230.574 151 231.574 151 232.074 150.5L232.574 152.5C226.574 156 221.074 160.5 215.574 165C211.074 169 206.074 172.5 201.574 177C193.574 166 183.574 159 171.074 154V152.5C180.074 151.5 182.574 149 182.574 139.5V69C182.574 59 182.074 49 179.574 39.5C177.074 30.5 173.574 23 169.074 15L167.574 12L169.574 11C174.574 19 179.074 27.5 182.074 36C185.574 26 190.574 16.5 200.574 11C213.074 4.49999 228.074 2.49999 242.074 2.49999H246.074V5.99999H242.074C220.074 5.99999 218.574 23 218.574 41V75L256.574 47L262.574 54.5C274.074 67.5 276.074 78 276.074 95.5ZM384.494 141.5L379.994 144.5L351.494 165C345.994 168.5 341.494 173 336.994 177.5C324.994 172 312.494 165.5 303.994 155C298.994 148.5 296.994 140.5 295.994 132.5C294.994 124 294.494 115 294.494 106.5C294.494 85 294.494 72.5 315.994 63.5L354.994 46.5L381.494 88.5L327.994 122C332.494 135.5 345.494 148.5 360.494 148.5C368.994 148.5 376.494 144.5 383.494 139.5L384.494 141.5ZM350.994 103L327.994 63C326.994 69 326.994 75 326.994 81.5V101.5C326.994 102.5 326.494 105 326.494 106C326.494 108.5 326.994 111.5 326.994 114L327.494 118L350.994 103ZM654.123 63C642.623 64 631.623 66.5 621.123 70.5C634.623 79.5 649.123 89.5 649.123 107.5C649.123 128.5 634.123 146 617.623 157.5C604.123 167 584.123 177.5 567.123 177.5C551.123 177.5 536.623 169 525.123 159L511.123 147C506.123 143 499.123 137 492.123 137H491.623C481.123 138 478.123 147.5 477.123 156.5L474.123 156C475.123 146.5 478.623 138 485.123 131C493.123 122.5 504.623 116.5 516.123 116.5H521.123C525.123 99 525.623 80.5 525.623 62.5C525.623 49.5 524.623 35 517.123 24C513.623 18.5 507.123 13.5 500.123 13.5H499.123C491.623 14.5 482.623 19.5 482.623 27.5C482.623 35 489.623 39.5 495.623 42.5C505.123 48.5 512.123 57 512.123 69C512.123 90 494.623 106 474.623 109L474.123 106.5L476.623 106C483.623 104.5 493.123 101 493.623 92.5C493.623 89.5 492.123 87.5 489.623 86L484.623 82.5C474.123 75.5 467.623 64.5 467.623 51.5C467.623 40 472.623 28 481.123 20C491.623 10 506.623 3.99999 521.123 3.99999C532.123 3.99999 542.623 5.99999 551.623 12C558.123 16 562.623 21.5 566.123 28C567.123 22.5 569.123 16.5 573.623 12.5C580.623 5.99999 591.123 4.49999 600.123 4.49999C609.623 4.49999 619.123 6.99999 626.123 13.5C633.123 19.5 635.123 28 635.623 36.5L636.123 46.5C636.623 56.5 641.123 61 651.123 61C652.123 61 653.123 61 654.123 60.5V63ZM627.623 65.5C626.623 65 625.123 65 624.123 64.5C615.623 62.5 607.123 60.5 601.123 53.5C596.623 48 595.623 40.5 595.123 33.5C594.623 26 592.623 11.5 582.123 11.5H581.623C573.623 12.5 568.623 23 568.623 30.5C568.623 33.5 568.623 36.5 569.123 39.5C569.623 43.5 569.623 48 570.123 52V57C570.123 65.5 568.623 74.5 566.123 82L627.623 65.5ZM623.123 138C623.123 124.5 612.623 111.5 603.623 103C593.623 93.5 582.123 85.5 568.123 83L565.623 84C560.123 93.5 551.623 100.5 542.123 106L529.123 113C527.123 114 525.123 115.5 523.623 116.5C536.123 118.5 547.123 124 556.623 132.5L567.123 142C575.623 150 588.623 160.5 601.123 160.5C613.623 160.5 623.123 150 623.123 138ZM772.611 151.5C771.611 152 771.111 152.5 770.611 152.5L753.611 166.5C749.611 170 745.611 173.5 742.611 177.5C730.611 170 722.111 162 720.111 148C715.611 151.5 711.611 155 707.611 158.5L697.611 167.5C694.111 170.5 691.111 174 687.611 177.5C668.611 163 664.611 156 664.611 132.5V102C664.611 81 670.111 78 688.611 70.5C695.111 67.5 701.611 65 707.611 61.5C713.111 58.5 718.611 55 723.611 51.5L726.611 49.5C731.611 55 737.611 60.5 744.111 65C751.111 70.5 759.611 73.5 768.111 76.5V78L766.111 78.5C755.611 80 754.611 83.5 754.611 94.5V132.5C754.611 137.5 754.611 143 757.111 148C758.611 150.5 761.111 153.5 764.111 153.5C766.611 153 769.111 151.5 771.111 150L772.611 151.5ZM720.111 144.5V84.5C712.611 80 706.111 74 701.111 67L699.611 67.5V129C699.611 129.5 699.111 131 699.111 131.5C699.111 138.5 700.111 153 707.611 153C710.111 153 712.611 151 714.111 149.5L717.611 146.5C718.611 146 719.111 145 720.111 144.5ZM879.031 100.5C879.031 113.5 879.031 128 876.531 140.5C874.531 148 868.531 153 861.031 155.5L849.031 159.5C838.031 163 827.031 168.5 819.531 177.5C813.031 170 805.031 164 797.031 159C790.031 154 783.031 149.5 775.531 146.5V145C778.531 145 781.031 145 783.531 143C787.031 140.5 787.031 137 787.031 133V52C787.031 37 783.031 23.5 775.031 10.5L773.531 7.99999L775.031 6.5C780.531 13 784.531 20.5 787.031 28.5C791.031 20.5 797.031 14.5 805.531 10.5C816.531 4.99999 828.531 3 840.531 3C844.031 3 847.531 3.49999 851.031 3.49999V6.5C849.031 6.5 846.531 5.99999 844.031 5.99999C837.531 5.99999 829.531 9.49999 826.031 15C822.531 20.5 821.531 29.5 821.531 36.5C821.531 38 822.031 40 822.031 41V73.5L834.531 65.5C843.031 60 851.531 54.5 859.031 48C860.031 49 861.031 50 861.531 51L871.531 61.5C876.031 66 878.031 71.5 878.531 77.5C879.031 81 879.031 85.5 879.031 89V100.5ZM843.531 154.5V87C843.531 83 843.531 79 841.531 75.5C840.031 73 837.531 71.5 835.031 71.5C830.031 71.5 826.031 74.5 822.031 77V137L824.031 138.5C827.531 141 831.031 144 834.531 147L839.031 151C840.531 152.5 842.031 153.5 843.531 154.5ZM985.51 144.5L982.51 146C967.51 155 953.01 164 939.51 175L936.01 177.5C934.51 176.5 933.01 175 931.01 174L911.01 160.5C904.51 155.5 901.01 148.5 899.51 141C899.01 136 898.01 129.5 898.01 124C898.01 120.5 898.51 116 898.51 112.5C898.51 110.5 898.01 107.5 898.01 105C898.01 96.5 899.01 84 901.01 78C903.51 70 910.01 66 917.51 64L965.01 48.5L982.51 84C977.51 87 973.01 89.5 968.01 91.5C963.01 94 958.01 97 953.01 99.5L951.51 96.5C950.01 92.5 948.51 88.5 946.51 84.5L941.01 72L935.51 60.5L933.01 61V114C933.01 123.5 935.51 133.5 943.51 140.5C949.01 145.5 957.01 149 964.51 149C971.51 149 978.51 146 984.51 142.5L985.51 144.5ZM1086.45 114.5C1086.45 123.5 1085.95 134.5 1083.95 141C1080.95 148.5 1074.45 152.5 1066.95 154.5C1051.95 158.5 1039.95 161.5 1033.45 177.5C1020.45 163.5 1003.45 154 985.445 148.5V147C993.945 145 994.945 142.5 994.945 134V67C995.945 67.5 997.445 67.5 998.445 67.5C999.445 67.5 1000.95 68 1001.95 68C1009.45 68 1017.95 66 1025.45 65C1038.95 62 1051.45 57 1061.45 47C1067.95 52 1074.45 57.5 1079.45 64.5C1082.95 69 1084.45 74 1084.95 80C1086.45 88.5 1086.45 97.5 1086.45 106V114.5ZM1050.95 151V106.5C1050.95 89 1049.45 71.5 1029.95 67V136.5L1050.95 151ZM1192.05 144.5L1189.05 146C1174.05 155 1159.55 164 1146.05 175L1142.55 177.5C1141.05 176.5 1139.55 175 1137.55 174L1117.55 160.5C1111.05 155.5 1107.55 148.5 1106.05 141C1105.55 136 1104.55 129.5 1104.55 124C1104.55 120.5 1105.05 116 1105.05 112.5C1105.05 110.5 1104.55 107.5 1104.55 105C1104.55 96.5 1105.55 84 1107.55 78C1110.05 70 1116.55 66 1124.05 64L1171.55 48.5L1189.05 84C1184.05 87 1179.55 89.5 1174.55 91.5C1169.55 94 1164.55 97 1159.55 99.5L1158.05 96.5C1156.55 92.5 1155.05 88.5 1153.05 84.5L1147.55 72L1142.05 60.5L1139.55 61V114C1139.55 123.5 1142.05 133.5 1150.05 140.5C1155.55 145.5 1163.55 149 1171.05 149C1178.05 149 1185.05 146 1191.05 142.5L1192.05 144.5ZM1318.49 148.75C1301.49 159.75 1294.24 168.5 1283.24 176.25C1260.24 163 1275.99 125.25 1254.74 110.25L1244.74 116.25V137.75C1244.74 143.25 1244.74 150.5 1250.24 150.5C1251.99 150.5 1253.99 150 1256.24 148.75V152.75C1242.99 159.75 1234.24 167 1227.24 176.25C1219.49 165.25 1208.99 156 1197.99 154.25V150.5C1206.74 150.5 1210.74 148.75 1210.74 140V58C1210.74 46.5 1201.74 23.5 1196.24 19.5L1197.99 15.75C1205.24 21.25 1208.99 30.5 1210.74 37.75C1210.74 13.5 1244.74 6.99999 1263.99 6.99999H1270.49V10.75C1254.74 10.75 1244.74 19.5 1244.74 30.5V77.75L1281.49 50.25C1292.49 55.75 1302.99 67.5 1302.99 74C1302.99 75.75 1301.49 77.25 1299.74 77.75L1281.49 90.5C1292.49 99.75 1295.99 107 1299.74 118C1302.49 125.25 1300.74 148.25 1311.24 148.25C1312.99 148.25 1315.74 146.5 1318.49 145.5V148.75ZM1274.49 92.25C1269.49 87.25 1264.49 75.75 1256.24 75.75C1252.99 75.75 1249.74 77.25 1244.74 81.75V112.5L1274.49 92.25ZM1558.35 39.5C1558.35 56.5 1542.35 69 1525.85 69C1509.85 69 1495.35 60.5 1481.35 53L1477.85 51C1475.85 52 1474.35 53 1474.35 55L1473.85 56.5C1473.85 57.5 1474.85 58.5 1475.85 59C1479.85 63.5 1487.35 67.5 1492.35 71C1501.35 77 1511.35 83.5 1511.35 95.5C1511.35 105.5 1504.85 115 1496.35 120.5L1482.35 130L1489.35 134C1501.85 141 1518.85 152 1533.35 152C1545.85 152 1552.35 141 1555.35 130L1557.85 131C1554.35 144 1547.85 156 1537.35 164.5C1526.35 173.5 1513.35 177.5 1499.85 177.5C1489.85 177.5 1479.85 175 1470.35 171C1457.35 166 1445.85 158 1434.35 150.5C1427.85 146 1420.85 141.5 1412.85 141.5C1400.85 141.5 1399.85 153.5 1398.85 162.5H1396.35C1396.35 151.5 1399.35 141 1406.35 132C1414.35 122.5 1426.85 116 1439.85 116C1454.35 116 1467.85 121.5 1479.85 128.5C1481.85 127.5 1484.85 126 1484.85 123C1484.85 116 1471.85 110.5 1466.85 107.5C1458.35 102.5 1449.35 96.5 1449.35 85.5C1449.35 73.5 1457.85 64 1466.85 57L1475.35 50L1471.35 48C1456.85 40.5 1442.85 33.5 1426.35 33.5C1412.35 33.5 1400.85 42 1400.85 56.5C1400.85 70.5 1414.85 79.5 1427.35 79.5C1432.85 79.5 1437.85 78 1441.85 75.5L1443.35 77.5C1438.35 81 1432.85 82.5 1427.35 82.5C1407.85 82.5 1395.85 69.5 1395.85 50C1395.85 37 1402.35 23.5 1411.85 14.5C1422.85 3.99999 1438.35 -7.86781e-06 1453.35 -7.86781e-06C1466.35 -7.86781e-06 1480.35 3 1491.85 9.49999C1503.85 16 1514.85 24.5 1524.85 33C1529.85 37.5 1538.85 46 1545.85 46C1550.85 46 1554.35 42.5 1554.35 38C1554.35 24 1537.85 17 1527.35 13.5L1528.35 10.5C1535.35 12.5 1542.35 15 1547.85 20C1553.35 24.5 1558.35 31.5 1558.35 39.5ZM1670.43 114.5C1670.43 123.5 1669.93 134.5 1667.93 141C1664.93 148.5 1658.43 152.5 1650.93 154.5C1635.93 158.5 1623.93 161.5 1617.43 177.5C1604.43 163.5 1587.43 154 1569.43 148.5V147C1577.93 145 1578.93 142.5 1578.93 134V67C1579.93 67.5 1581.43 67.5 1582.43 67.5C1583.43 67.5 1584.93 68 1585.93 68C1593.43 68 1601.93 66 1609.43 65C1622.93 62 1635.43 57 1645.43 47C1651.93 52 1658.43 57.5 1663.43 64.5C1666.93 69 1668.43 74 1668.93 80C1670.43 88.5 1670.43 97.5 1670.43 106V114.5ZM1634.93 151V106.5C1634.93 89 1633.43 71.5 1613.93 67V136.5L1634.93 151ZM1787.04 78.5L1761.54 104L1743.54 73L1736.04 80.5V128.5C1736.04 137.5 1741.04 148.5 1751.54 148.5C1758.54 148.5 1765.04 142 1770.04 138L1772.04 136L1774.04 138.5C1768.04 143.5 1762.04 148.5 1756.04 153L1731.04 174L1727.54 177.5C1715.04 164 1702.54 154.5 1685.54 149.5V147H1688.04C1698.04 147 1700.04 140 1700.04 131V93C1700.04 86.5 1699.54 74 1690.54 74C1687.54 74 1685.54 75.5 1683.54 77C1683.04 77.5 1682.04 78 1681.54 78.5L1679.54 76.5L1690.54 66.5C1694.54 63.5 1708.54 50 1711.54 48L1713.54 46C1727.54 52.5 1735.54 61 1736.04 76.5C1743.54 70 1751.04 63.5 1757.54 55.5L1763.54 48.5C1764.54 47.5 1765.54 47 1766.04 46L1787.04 78.5ZM1886.14 144.5L1883.14 146C1868.14 155 1853.64 164 1840.14 175L1836.64 177.5C1835.14 176.5 1833.64 175 1831.64 174L1811.64 160.5C1805.14 155.5 1801.64 148.5 1800.14 141C1799.64 136 1798.64 129.5 1798.64 124C1798.64 120.5 1799.14 116 1799.14 112.5C1799.14 110.5 1798.64 107.5 1798.64 105C1798.64 96.5 1799.64 84 1801.64 78C1804.14 70 1810.64 66 1818.14 64L1865.64 48.5L1883.14 84C1878.14 87 1873.64 89.5 1868.64 91.5C1863.64 94 1858.64 97 1853.64 99.5L1852.14 96.5C1850.64 92.5 1849.14 88.5 1847.14 84.5L1841.64 72L1836.14 60.5L1833.64 61V114C1833.64 123.5 1836.14 133.5 1844.14 140.5C1849.64 145.5 1857.64 149 1865.14 149C1872.14 149 1879.14 146 1885.14 142.5L1886.14 144.5ZM1994.58 95.5C1994.58 113.5 1994.58 132 1993.08 150C1991.58 177 1982.58 192 1961.08 207.5C1949.58 216 1937.08 223 1924.58 229L1923.08 226.5C1933.08 221.5 1944.58 215.5 1949.58 205C1956.58 189 1957.58 167.5 1957.58 150.5V91.5C1957.58 85.5 1956.58 72.5 1948.08 72.5C1945.58 72.5 1943.58 73.5 1941.58 75L1937.08 79V141.5C1937.08 145.5 1938.08 153.5 1943.58 153.5C1945.58 153.5 1947.08 152.5 1948.58 151.5C1949.08 151 1950.08 151 1950.58 150.5L1951.08 152.5C1945.08 156 1939.58 160.5 1934.08 165C1929.58 169 1924.58 172.5 1920.08 177C1912.08 166 1902.08 159 1889.58 154V152.5C1898.58 151.5 1901.08 149 1901.08 139.5V69C1901.08 59 1900.58 49 1898.08 39.5C1895.58 30.5 1892.08 23 1887.58 15L1886.08 12L1888.08 11C1893.08 19 1897.58 27.5 1900.58 36C1904.08 26 1909.08 16.5 1919.08 11C1931.58 4.49999 1946.58 2.49999 1960.58 2.49999H1964.58V5.99999H1960.58C1938.58 5.99999 1937.08 23 1937.08 41V75L1975.08 47L1981.08 54.5C1992.58 67.5 1994.58 78 1994.58 95.5Z" fill="white"/>
</g>
<defs>
<filter id="filter0_d_292_2" x="0" y="0" width="1998.58" height="237" filterUnits="userSpaceOnUse" color-interpolation-filters="sRGB">
<feFlood flood-opacity="0" result="BackgroundImageFix"/>
<feColorMatrix in="SourceAlpha" type="matrix" values="0 0 0 0 0 0 0 0 0 0 0 0 0 0 0 0 0 0 127 0" result="hardAlpha"/>
<feOffset dy="4"/>
<feGaussianBlur stdDeviation="2"/>
<feComposite in2="hardAlpha" operator="out"/>
<feColorMatrix type="matrix" values="0 0 0 0 0 0 0 0 0 0 0 0 0 0 0 0 0 0 0.25 0"/>
<feBlend mode="normal" in2="BackgroundImageFix" result="effect1_dropShadow_292_2"/>
<feBlend mode="normal" in="SourceGraphic" in2="effect1_dropShadow_292_2" result="shape"/>
</filter>
</defs>
</svg>
