<svg width="396" height="52" viewBox="0 0 396 52" fill="none" xmlns="http://www.w3.org/2000/svg">
<path d="M4.35 17.85L3.9 18.3L3.8 18.2C1.6 16.5 0.3 13.8 1.19209e-07 11.1V10.4C1.19209e-07 8.4 0.7 6.3 1.8 4.7C2.7 3.4 3.9 2.5 5.2 1.7C10.3 0.0999991 10.45 3.57628e-07 15.4 3.57628e-07C19.3 3.57628e-07 21.1 1.4 24.1 3.8C27.6 6.7 31.3 9.5 35 12.2L29.4 18.1L32.7 20.8L32.4 21.4L23.4 14.2L28.7 8.4L18.7 8.5C15.15 8.55 9.2 8.7 6.1 10.3C4.4 11.2 2.7 13.2 2.7 15.2V15.5C2.75 16.35 3.5 17.35 4.35 17.85ZM22.25 17.4L24.25 19.7C24.6 20.3 24.95 20.85 25.35 21.4C26.95 23.7 28.55 26.3 28.55 29.3C28.55 32.8 26.8 34.9 24.2 37.2C21.3 39.6 17.5 40.7 13.8 40.7C10.2 40.7 7.4 39.5 6.15 38.7C4.75 37.8 3.45 35.45 3.25 34.25C2.85 31.85 3.45 28.95 4.85 26.95L6.25 24.95C6.8 24.15 7.25 23.35 7.25 22.35C7.25 21.35 6.55 20.75 5.55 20.75C3.15 20.75 1.35 23.95 0.55 24.9L0.0500002 24.6C1.35 22.45 4.05 19.55 7.75 19.55C11.05 19.55 13.95 22.05 14.25 25.45V26.05C14.25 27.15 12.8 29.95 11.85 31C10.4 32.55 8.85 34.45 9.25 36.9C9.35 37.55 10.15 39.7 13.55 39.8C16.4 39.9 17.7 39.6 19.1 38.3C20.5 37 21.4 34.9 21.4 32.9C21.4 30.1 18.95 28.5 17.35 26.3C15.5 24 13.45 21.2 13.45 18.1C13.45 15.2 15 12.85 16.95 10.9L19.05 8.8L19.6 9H19.55C18.95 9.4 18.55 10 18.55 10.8C18.55 13.05 20.65 15.9 22.25 17.4ZM51.4148 25.15C51.4148 28.75 51.4148 32.45 51.1148 36.05C50.8148 41.45 49.0148 44.45 44.7148 47.55C42.4148 49.25 39.9148 50.65 37.4148 51.85L37.1148 51.35C39.1148 50.35 41.4148 49.15 42.4148 47.05C43.8148 43.85 44.0148 39.55 44.0148 36.15V24.35C44.0148 23.15 43.8148 20.55 42.1148 20.55C41.6148 20.55 41.2148 20.75 40.8148 21.05L39.9148 21.85V34.35C39.9148 35.15 40.1148 36.75 41.2148 36.75C41.6148 36.75 41.9148 36.55 42.2148 36.35C42.3148 36.25 42.5148 36.25 42.6148 36.15L42.7148 36.55C41.5148 37.25 40.4148 38.15 39.3148 39.05C38.4148 39.85 37.4148 40.55 36.5148 41.45C34.9148 39.25 32.9148 37.85 30.4148 36.85V36.55C32.2148 36.35 32.7148 35.85 32.7148 33.95V19.85C32.7148 17.85 32.6148 15.85 32.1148 13.95C31.6148 12.15 30.9148 10.65 30.0148 9.05L29.7148 8.45L30.1148 8.25C31.1148 9.85 32.0148 11.55 32.6148 13.25C33.3148 11.25 34.3148 9.35 36.3148 8.25C38.8148 6.95 41.8148 6.55 44.6148 6.55H45.4148V7.25H44.6148C40.2148 7.25 39.9148 10.65 39.9148 14.25V21.05L47.5148 15.45L48.7148 16.95C51.0148 19.55 51.4148 21.65 51.4148 25.15ZM73.0988 34.35L72.1988 34.95L66.4988 39.05C65.3988 39.75 64.4988 40.65 63.5988 41.55C61.1988 40.45 58.6988 39.15 56.9988 37.05C55.9988 35.75 55.5988 34.15 55.3988 32.55C55.1988 30.85 55.0988 29.05 55.0988 27.35C55.0988 23.05 55.0988 20.55 59.3988 18.75L67.1988 15.35L72.4988 23.75L61.7988 30.45C62.6988 33.15 65.2988 35.75 68.2988 35.75C69.9988 35.75 71.4988 34.95 72.8988 33.95L73.0988 34.35ZM66.3988 26.65L61.7988 18.65C61.5988 19.85 61.5988 21.05 61.5988 22.35V26.35C61.5988 26.55 61.4988 27.05 61.4988 27.25C61.4988 27.75 61.5988 28.35 61.5988 28.85L61.6988 29.65L66.3988 26.65ZM127.025 18.15V18.65C124.725 18.85 122.525 19.35 120.425 20.15C123.125 21.95 126.025 23.95 126.025 27.55C126.025 31.75 123.025 35.25 119.725 37.55C117.025 39.45 113.025 41.55 109.625 41.55C106.425 41.55 103.525 39.85 101.225 37.85L98.4246 35.45C97.4246 34.65 96.0246 33.45 94.6246 33.45H94.5246C92.4246 33.65 91.8246 35.55 91.6246 37.35L91.0246 37.25C91.2246 35.35 91.9246 33.65 93.2246 32.25C94.8246 30.55 97.1246 29.35 99.4246 29.35H100.425C101.225 25.85 101.325 22.15 101.325 18.55C101.325 15.95 101.125 13.05 99.6246 10.85C98.9246 9.75 97.6246 8.75 96.2246 8.75H96.0246C94.5246 8.95 92.7246 9.95 92.7246 11.55C92.7246 13.05 94.1246 13.95 95.3246 14.55C97.2246 15.75 98.6246 17.45 98.6246 19.85C98.6246 24.05 95.1246 27.25 91.1246 27.85L91.0246 27.35L91.5246 27.25C92.9246 26.95 94.8246 26.25 94.9246 24.55C94.9246 23.95 94.6246 23.55 94.1246 23.25L93.1246 22.55C91.0246 21.15 89.7246 18.95 89.7246 16.35C89.7246 14.05 90.7246 11.65 92.4246 10.05C94.5246 8.05 97.5246 6.85 100.425 6.85C102.625 6.85 104.725 7.25 106.525 8.45C107.825 9.25 108.725 10.35 109.425 11.65C109.625 10.55 110.025 9.35 110.925 8.55C112.325 7.25 114.425 6.95 116.225 6.95C118.125 6.95 120.025 7.45 121.425 8.75C122.825 9.95 123.225 11.65 123.325 13.35L123.425 15.35C123.525 17.35 124.425 18.25 126.425 18.25C126.625 18.25 126.825 18.25 127.025 18.15ZM109.425 22.45L121.725 19.15C121.525 19.05 121.225 19.05 121.025 18.95C119.325 18.55 117.625 18.15 116.425 16.75C115.525 15.65 115.325 14.15 115.225 12.75C115.125 11.25 114.725 8.35 112.625 8.35H112.525C110.925 8.55 109.925 10.65 109.925 12.15C109.925 12.75 109.925 13.35 110.025 13.95C110.125 14.75 110.125 15.65 110.225 16.45V17.45C110.225 19.15 109.925 20.95 109.425 22.45ZM120.825 33.65C120.825 30.95 118.725 28.35 116.925 26.65C114.925 24.75 112.625 23.15 109.825 22.65L109.325 22.85C108.225 24.75 106.525 26.15 104.625 27.25L102.025 28.65C101.625 28.85 101.225 29.15 100.925 29.35C103.425 29.75 105.625 30.85 107.525 32.55L109.625 34.45C111.325 36.05 113.925 38.15 116.425 38.15C118.925 38.15 120.825 36.05 120.825 33.65ZM150.422 36.05L150.722 36.35C150.522 36.45 150.422 36.55 150.322 36.55L146.922 39.35C146.122 40.05 145.322 40.75 144.722 41.55C142.322 40.05 140.622 38.45 140.222 35.65C139.322 36.35 138.522 37.05 137.722 37.75L135.722 39.55C135.022 40.15 134.422 40.85 133.722 41.55C129.922 38.65 129.122 37.25 129.122 32.55V26.45C129.122 22.25 130.222 21.65 133.922 20.15C135.222 19.55 136.522 19.05 137.722 18.35C138.822 17.75 139.922 17.05 140.922 16.35L141.522 15.95C142.522 17.05 143.722 18.15 145.022 19.05C146.422 20.15 148.122 20.75 149.822 21.35V21.65L149.422 21.75C147.322 22.05 147.122 22.75 147.122 24.95V32.55C147.122 33.55 147.122 34.65 147.622 35.65C147.922 36.15 148.422 36.75 149.022 36.75C149.522 36.65 150.022 36.35 150.422 36.05ZM140.222 34.95V22.95C138.722 22.05 137.422 20.85 136.422 19.45L136.122 19.55V31.85C136.122 31.95 136.022 32.25 136.022 32.35C136.022 33.75 136.222 36.65 137.722 36.65C138.222 36.65 138.722 36.25 139.022 35.95L139.722 35.35C139.922 35.25 140.022 35.05 140.222 34.95ZM172.006 23.85V26.15C172.006 28.75 172.006 31.65 171.506 34.15C171.106 35.65 169.906 36.65 168.406 37.15L166.006 37.95C163.806 38.65 161.606 39.75 160.106 41.55C158.806 40.05 157.206 38.85 155.606 37.85C154.206 36.85 152.806 35.95 151.306 35.35V35.05C151.906 35.05 152.406 35.05 152.906 34.65C153.606 34.15 153.606 33.45 153.606 32.65V16.45C153.606 13.45 152.806 10.75 151.206 8.15L150.906 7.65L151.206 7.35C152.306 8.65 153.106 10.15 153.606 11.75C154.406 10.15 155.606 8.95 157.306 8.15C159.506 7.05 161.906 6.65 164.306 6.65C165.006 6.65 165.706 6.75 166.406 6.75V7.35C166.006 7.35 165.506 7.25 165.006 7.25C163.706 7.25 162.106 7.95 161.406 9.05C160.706 10.15 160.506 11.95 160.506 13.35C160.506 13.65 160.606 14.05 160.606 14.25V20.75L163.106 19.15C164.806 18.05 166.506 16.95 168.006 15.65C168.206 15.85 168.406 16.05 168.506 16.25L170.506 18.35C171.406 19.25 171.806 20.35 171.906 21.55C172.006 22.25 172.006 23.15 172.006 23.85ZM164.906 36.95V23.45C164.906 22.65 164.906 21.85 164.506 21.15C164.206 20.65 163.706 20.35 163.206 20.35C162.206 20.35 161.406 20.95 160.606 21.45V33.45L161.006 33.75C161.706 34.25 162.406 34.85 163.106 35.45L164.006 36.25C164.306 36.55 164.606 36.75 164.906 36.95ZM193.302 34.95L192.702 35.25C189.702 37.05 186.802 38.85 184.102 41.05L183.402 41.55C183.102 41.35 182.802 41.05 182.402 40.85L178.402 38.15C177.102 37.15 176.402 35.75 176.102 34.25C176.002 33.25 175.802 31.95 175.802 30.85C175.802 30.15 175.902 29.25 175.902 28.55C175.902 28.15 175.802 27.55 175.802 27.05C175.802 25.35 176.002 22.85 176.402 21.65C176.902 20.05 178.202 19.25 179.702 18.85L189.202 15.75L192.702 22.85C191.702 23.45 190.802 23.95 189.802 24.35C188.802 24.85 187.802 25.45 186.802 25.95L186.502 25.35C186.202 24.55 185.902 23.75 185.502 22.95L184.402 20.45L183.302 18.15L182.802 18.25V28.85C182.802 30.75 183.302 32.75 184.902 34.15C186.002 35.15 187.602 35.85 189.102 35.85C190.502 35.85 191.902 35.25 193.102 34.55L193.302 34.95ZM213.489 27.25V28.95C213.489 30.75 213.389 32.95 212.989 34.25C212.389 35.75 211.089 36.55 209.589 36.95C206.589 37.75 204.189 38.35 202.889 41.55C200.289 38.75 196.889 36.85 193.289 35.75V35.45C194.989 35.05 195.189 34.55 195.189 32.85V19.45C195.389 19.55 195.689 19.55 195.889 19.55C196.089 19.55 196.389 19.65 196.589 19.65C198.089 19.65 199.789 19.25 201.289 19.05C203.989 18.45 206.489 17.45 208.489 15.45C209.789 16.45 211.089 17.55 212.089 18.95C212.789 19.85 213.089 20.85 213.189 22.05C213.489 23.75 213.489 25.55 213.489 27.25ZM206.389 36.25V27.35C206.389 23.85 206.089 20.35 202.189 19.45V33.35L206.389 36.25ZM234.611 34.95L234.011 35.25C231.011 37.05 228.111 38.85 225.411 41.05L224.711 41.55C224.411 41.35 224.111 41.05 223.711 40.85L219.711 38.15C218.411 37.15 217.711 35.75 217.411 34.25C217.311 33.25 217.111 31.95 217.111 30.85C217.111 30.15 217.211 29.25 217.211 28.55C217.211 28.15 217.111 27.55 217.111 27.05C217.111 25.35 217.311 22.85 217.711 21.65C218.211 20.05 219.511 19.25 221.011 18.85L230.511 15.75L234.011 22.85C233.011 23.45 232.111 23.95 231.111 24.35C230.111 24.85 229.111 25.45 228.111 25.95L227.811 25.35C227.511 24.55 227.211 23.75 226.811 22.95L225.711 20.45L224.611 18.15L224.111 18.25V28.85C224.111 30.75 224.611 32.75 226.211 34.15C227.311 35.15 228.911 35.85 230.411 35.85C231.811 35.85 233.211 35.25 234.411 34.55L234.611 34.95ZM259.898 35.15V35.8C256.498 38 255.048 39.75 252.848 41.3C248.248 38.65 251.398 31.1 247.148 28.1L245.148 29.3V33.6C245.148 34.7 245.148 36.15 246.248 36.15C246.598 36.15 246.998 36.05 247.448 35.8V36.6C244.798 38 243.048 39.45 241.648 41.3C240.098 39.1 237.998 37.25 235.798 36.9V36.15C237.548 36.15 238.348 35.8 238.348 34.05V17.65C238.348 15.35 236.548 10.75 235.448 9.95L235.798 9.2C237.248 10.3 237.998 12.15 238.348 13.6C238.348 8.75 245.148 7.45 248.998 7.45H250.298V8.2C247.148 8.2 245.148 9.95 245.148 12.15V21.6L252.498 16.1C254.698 17.2 256.798 19.55 256.798 20.85C256.798 21.2 256.498 21.5 256.148 21.6L252.498 24.15C254.698 26 255.398 27.45 256.148 29.65C256.698 31.1 256.348 35.7 258.448 35.7C258.798 35.7 259.348 35.35 259.898 35.15ZM245.148 28.55L251.098 24.5C250.098 23.5 249.098 21.2 247.448 21.2C246.798 21.2 246.148 21.5 245.148 22.4V28.55ZM282.719 17.85L282.269 18.3L282.169 18.2C279.969 16.5 278.669 13.8 278.369 11.1V10.4C278.369 8.4 279.069 6.3 280.169 4.7C281.069 3.4 282.269 2.5 283.569 1.7C288.669 0.0999991 288.819 3.57628e-07 293.769 3.57628e-07C297.669 3.57628e-07 299.469 1.4 302.469 3.8C305.969 6.7 309.669 9.5 313.369 12.2L307.769 18.1L311.069 20.8L310.769 21.4L301.769 14.2L307.069 8.4L297.069 8.5C293.519 8.55 287.569 8.7 284.469 10.3C282.769 11.2 281.069 13.2 281.069 15.2V15.5C281.119 16.35 281.869 17.35 282.719 17.85ZM300.619 17.4L302.619 19.7C302.969 20.3 303.319 20.85 303.719 21.4C305.319 23.7 306.919 26.3 306.919 29.3C306.919 32.8 305.169 34.9 302.569 37.2C299.669 39.6 295.869 40.7 292.169 40.7C288.569 40.7 285.769 39.5 284.519 38.7C283.119 37.8 281.819 35.45 281.619 34.25C281.219 31.85 281.819 28.95 283.219 26.95L284.619 24.95C285.169 24.15 285.619 23.35 285.619 22.35C285.619 21.35 284.919 20.75 283.919 20.75C281.519 20.75 279.719 23.95 278.919 24.9L278.419 24.6C279.719 22.45 282.419 19.55 286.119 19.55C289.419 19.55 292.319 22.05 292.619 25.45V26.05C292.619 27.15 291.169 29.95 290.219 31C288.769 32.55 287.219 34.45 287.619 36.9C287.719 37.55 288.519 39.7 291.919 39.8C294.769 39.9 296.069 39.6 297.469 38.3C298.869 37 299.769 34.9 299.769 32.9C299.769 30.1 297.319 28.5 295.719 26.3C293.869 24 291.819 21.2 291.819 18.1C291.819 15.2 293.369 12.85 295.319 10.9L297.419 8.8L297.969 9H297.919C297.319 9.4 296.919 10 296.919 10.8C296.919 13.05 299.019 15.9 300.619 17.4ZM330.286 27.25V28.95C330.286 30.75 330.186 32.95 329.786 34.25C329.186 35.75 327.886 36.55 326.386 36.95C323.386 37.75 320.986 38.35 319.686 41.55C317.086 38.75 313.686 36.85 310.086 35.75V35.45C311.786 35.05 311.986 34.55 311.986 32.85V19.45C312.186 19.55 312.486 19.55 312.686 19.55C312.886 19.55 313.186 19.65 313.386 19.65C314.886 19.65 316.586 19.25 318.086 19.05C320.786 18.45 323.286 17.45 325.286 15.45C326.586 16.45 327.886 17.55 328.886 18.95C329.586 19.85 329.886 20.85 329.986 22.05C330.286 23.75 330.286 25.55 330.286 27.25ZM323.186 36.25V27.35C323.186 23.85 322.886 20.35 318.986 19.45V33.35L323.186 36.25ZM353.607 21.75L348.507 26.85L344.907 20.65L343.407 22.15V31.75C343.407 33.55 344.407 35.75 346.507 35.75C347.907 35.75 349.207 34.45 350.207 33.65L350.607 33.25L351.007 33.75C349.807 34.75 348.607 35.75 347.407 36.65L342.407 40.85L341.707 41.55C339.207 38.85 336.707 36.95 333.307 35.95V35.45H333.807C335.807 35.45 336.207 34.05 336.207 32.25V24.65C336.207 23.35 336.107 20.85 334.307 20.85C333.707 20.85 333.307 21.15 332.907 21.45C332.807 21.55 332.607 21.65 332.507 21.75L332.107 21.35L334.307 19.35C335.107 18.75 337.907 16.05 338.507 15.65L338.907 15.25C341.707 16.55 343.307 18.25 343.407 21.35C344.907 20.05 346.407 18.75 347.707 17.15L348.907 15.75C349.107 15.55 349.307 15.45 349.407 15.25L353.607 21.75ZM373.429 34.95L372.829 35.25C369.829 37.05 366.929 38.85 364.229 41.05L363.529 41.55C363.229 41.35 362.929 41.05 362.529 40.85L358.529 38.15C357.229 37.15 356.529 35.75 356.229 34.25C356.129 33.25 355.929 31.95 355.929 30.85C355.929 30.15 356.029 29.25 356.029 28.55C356.029 28.15 355.929 27.55 355.929 27.05C355.929 25.35 356.129 22.85 356.529 21.65C357.029 20.05 358.329 19.25 359.829 18.85L369.329 15.75L372.829 22.85C371.829 23.45 370.929 23.95 369.929 24.35C368.929 24.85 367.929 25.45 366.929 25.95L366.629 25.35C366.329 24.55 366.029 23.75 365.629 22.95L364.529 20.45L363.429 18.15L362.929 18.25V28.85C362.929 30.75 363.429 32.75 365.029 34.15C366.129 35.15 367.729 35.85 369.229 35.85C370.629 35.85 372.029 35.25 373.229 34.55L373.429 34.95ZM395.116 25.15C395.116 28.75 395.116 32.45 394.816 36.05C394.516 41.45 392.716 44.45 388.416 47.55C386.116 49.25 383.616 50.65 381.116 51.85L380.816 51.35C382.816 50.35 385.116 49.15 386.116 47.05C387.516 43.85 387.716 39.55 387.716 36.15V24.35C387.716 23.15 387.516 20.55 385.816 20.55C385.316 20.55 384.916 20.75 384.516 21.05L383.616 21.85V34.35C383.616 35.15 383.816 36.75 384.916 36.75C385.316 36.75 385.616 36.55 385.916 36.35C386.016 36.25 386.216 36.25 386.316 36.15L386.416 36.55C385.216 37.25 384.116 38.15 383.016 39.05C382.116 39.85 381.116 40.55 380.216 41.45C378.616 39.25 376.616 37.85 374.116 36.85V36.55C375.916 36.35 376.416 35.85 376.416 33.95V19.85C376.416 17.85 376.316 15.85 375.816 13.95C375.316 12.15 374.616 10.65 373.716 9.05L373.416 8.45L373.816 8.25C374.816 9.85 375.716 11.55 376.316 13.25C377.016 11.25 378.016 9.35 380.016 8.25C382.516 6.95 385.516 6.55 388.316 6.55H389.116V7.25H388.316C383.916 7.25 383.616 10.65 383.616 14.25V21.05L391.216 15.45L392.416 16.95C394.716 19.55 395.116 21.65 395.116 25.15Z" fill="#A98105"/>
</svg>
