<svg width="3117" height="444" viewBox="0 0 3117 444" fill="none" xmlns="http://www.w3.org/2000/svg">
<path d="M52.503 146.157C52.503 236.027 117.777 306.504 193.457 314.072L174.537 327.316C164.131 329.681 153.725 331.1 142.846 331.1C63.855 331.1 -2.13031e-05 262.042 -2.13031e-05 177.375C-2.13031e-05 119.196 30.272 68.1121 74.734 42.0971C62.436 39.2591 51.084 37.3671 41.624 37.3671C28.853 37.3671 17.028 44.4621 11.825 60.5441C21.285 26.0151 54.395 7.51019e-05 94.127 7.51019e-05C141.427 7.51019e-05 203.863 30.2721 240.284 30.2721C254.947 30.2721 263.934 23.1771 267.245 15.6091C262.988 37.3671 239.338 71.4231 199.606 71.4231C166.496 71.4231 121.088 54.8681 83.721 44.4621C63.855 72.8421 52.503 107.844 52.503 146.157ZM83.248 234.135V101.695L142.373 61.4901V193.93L83.248 234.135ZM222.31 135.278C254.474 143.792 276.705 175.01 276.705 211.431C276.705 241.23 262.042 267.245 239.338 282.854L209.066 303.193C227.986 290.422 237.446 266.299 237.446 243.595C237.446 198.66 200.552 172.645 175.956 172.645C170.753 172.645 165.55 174.064 161.766 176.429L222.31 135.278ZM330.627 7.51019e-05C346.709 2.83809 359.48 20.3391 359.48 41.1511V160.82V280.016C359.48 302.72 375.089 303.193 386.441 295.625L334.884 331.1C318.802 328.262 306.031 310.761 306.031 289.949V51.0841C306.031 28.3801 289.949 27.9071 279.07 35.4751L330.627 7.51019e-05ZM457.391 154.671V332.046C457.391 365.156 449.823 393.063 426.173 417.186C407.253 436.106 385.495 443.674 379.819 443.201C405.834 427.119 403.942 390.698 403.942 360.426V164.604C403.942 142.373 381.711 146.63 359.48 160.82L428.538 113.52C444.62 116.358 457.391 133.859 457.391 154.671ZM490.608 238.865C490.608 203.863 504.798 172.172 527.502 153.252C522.299 166.496 519.934 180.686 519.934 195.349C519.934 263.461 575.275 302.247 608.385 289.949L548.314 331.1C514.731 320.694 490.608 283.327 490.608 238.865ZM584.735 113.52C601.763 118.723 626.359 135.751 626.359 161.766C626.359 175.01 620.21 187.308 609.331 194.876L563.923 225.621C572.91 217.107 578.113 204.809 578.113 193.457C578.113 166.023 550.679 146.157 527.502 153.252L584.735 113.52ZM823.179 46.8271C806.151 55.3411 786.758 67.1661 768.311 67.1661C745.134 67.1661 725.741 44.9351 723.376 16.0821C727.633 26.4881 734.255 30.2721 742.769 30.2721C766.419 30.2721 802.367 7.51019e-05 832.639 7.51019e-05C860.073 7.51019e-05 881.831 26.0151 881.831 57.7061V240.757L823.179 200.552V46.8271ZM976.904 146.157C1022.31 173.118 1028.93 245.014 989.675 292.314L939.537 326.37C959.403 312.18 967.917 281.435 967.917 256.839C967.917 213.796 944.267 188.727 923.928 188.727C918.252 188.727 913.049 190.146 907.846 193.93L976.904 146.157ZM819.868 240.757C873.317 240.284 915.887 326.37 939.537 326.37C931.023 329.681 922.036 331.1 912.103 331.1C853.451 331.1 825.544 275.759 784.866 275.759C762.635 275.759 750.81 293.26 747.026 304.139C760.27 267.718 784.866 241.23 819.868 240.757ZM937.645 69.0581C923.455 48.2461 904.535 33.5831 889.399 43.5161L952.781 7.51019e-05C979.742 27.9071 1000.55 47.7731 1000.55 78.9911C1001.03 99.3301 991.094 117.777 976.904 131.967L938.118 158.455C952.308 148.995 957.984 136.224 957.984 122.034C957.984 103.587 948.524 85.1401 937.645 69.0581ZM1189 280.016C1189 302.72 1205.08 303.193 1215.96 295.625L1164.87 331.1C1148.32 328.262 1136.02 310.761 1136.02 289.949V177.375C1117.1 169.334 1090.14 148.995 1070.27 148.995C1056.56 148.995 1045.2 158.928 1045.2 170.753C1045.2 139.062 1069.8 113.52 1099.6 113.52C1137.91 113.52 1177.17 159.401 1199.88 145.211L1189 152.779C1189 192.984 1189 280.016 1189 280.016ZM1079.73 249.271C1079.73 271.975 1094.87 293.733 1125.14 302.72L1083.52 331.1C1053.72 328.262 1032.43 304.139 1032.43 277.178C1032.43 257.785 1043.31 243.122 1060.81 231.297L1098.18 205.282C1085.41 219.945 1079.73 235.081 1079.73 249.271ZM1336.14 113.52C1366.88 124.399 1389.12 161.293 1389.12 205.755C1389.12 241.23 1374.45 272.448 1352.22 291.368C1374.45 227.986 1341.82 156.563 1289.31 145.684L1336.14 113.52ZM1289.31 257.785C1301.61 277.651 1321.95 293.26 1345.6 296.098L1294.52 331.1C1260.93 319.275 1235.86 277.651 1235.86 228.459V51.0841C1235.86 28.3801 1219.78 27.9071 1208.9 35.4751L1260.46 7.51019e-05C1276.54 2.83809 1289.31 20.3391 1289.31 41.1511V257.785ZM1441.91 195.349C1441.91 263.461 1497.26 302.247 1530.37 289.949L1470.29 331.1C1436.71 320.694 1412.59 283.327 1412.59 238.865C1412.59 203.863 1426.78 172.172 1449.48 153.252C1444.28 166.496 1441.91 180.686 1441.91 195.349ZM1512.39 187.308C1496.78 160.347 1467.93 145.211 1449.48 153.252L1506.72 113.52C1527.53 120.142 1545.5 135.751 1556.85 157.036L1512.39 187.308ZM1584.2 195.349C1584.2 262.042 1633.86 303.666 1665.08 291.368L1607.37 331.1C1576.63 320.694 1554.4 283.327 1554.4 238.865C1554.4 203.39 1569.06 172.172 1591.29 153.252C1586.56 166.496 1584.2 181.159 1584.2 195.349ZM1648.52 113.52C1679.27 124.399 1701.5 161.293 1701.5 205.755C1701.5 241.23 1686.84 272.448 1665.08 291.368C1669.34 278.124 1671.7 263.461 1671.7 249.271C1671.7 182.578 1622.04 140.954 1591.29 153.252L1648.52 113.52ZM1754.63 195.349C1754.63 263.461 1809.97 302.247 1843.08 289.949L1783.01 331.1C1749.43 320.694 1725.3 283.327 1725.3 238.865C1725.3 203.863 1739.49 172.172 1762.2 153.252C1757 166.496 1754.63 180.686 1754.63 195.349ZM1825.11 187.308C1809.5 160.347 1780.65 145.211 1762.2 153.252L1819.43 113.52C1840.24 120.142 1858.22 135.751 1869.57 157.036L1825.11 187.308ZM1945.23 280.016C1945.23 302.72 1960.84 303.193 1972.19 295.625L1920.63 331.1C1904.55 328.262 1891.78 310.761 1891.78 289.949V51.0841C1891.78 28.3801 1875.7 27.9071 1864.82 35.4751L1916.38 7.51019e-05C1932.46 2.83809 1945.23 20.3391 1945.23 41.1511V280.016ZM2041.25 282.854C2050.71 297.517 2059.7 305.558 2074.36 295.625L2022.8 331.1C2016.65 330.154 2010.98 326.843 2006.72 322.113C1986.38 302.247 1974.08 245.487 1950.91 245.014C1949.01 245.014 1947.12 245.96 1945.23 246.906L1979.76 222.783C1989.69 216.161 1995.84 204.809 1995.84 192.511C1995.84 162.712 1960.37 144.265 1945.23 153.252L2002.46 113.52C2019.49 118.723 2044.09 135.751 2044.09 161.766C2044.09 175.01 2037.94 187.308 2027.06 194.876L2000.57 212.85C2013.34 225.621 2027.53 263.461 2041.25 282.854ZM2223.96 146.157C2223.96 236.027 2289.23 306.504 2364.91 314.072L2345.99 327.316C2335.59 329.681 2325.18 331.1 2314.3 331.1C2235.31 331.1 2171.46 262.042 2171.46 177.375C2171.46 119.196 2201.73 68.1121 2246.19 42.0971C2233.89 39.2591 2222.54 37.3671 2213.08 37.3671C2200.31 37.3671 2188.49 44.4621 2183.28 60.5441C2192.74 26.0151 2225.85 7.51019e-05 2265.58 7.51019e-05C2312.88 7.51019e-05 2375.32 30.2721 2411.74 30.2721C2426.4 30.2721 2435.39 23.1771 2438.7 15.6091C2434.45 37.3671 2410.8 71.4231 2371.06 71.4231C2337.95 71.4231 2292.55 54.8681 2255.18 44.4621C2235.31 72.8421 2223.96 107.844 2223.96 146.157ZM2254.71 234.135V101.695L2313.83 61.4901V193.93L2254.71 234.135ZM2393.77 135.278C2425.93 143.792 2448.16 175.01 2448.16 211.431C2448.16 241.23 2433.5 267.245 2410.8 282.854L2380.52 303.193C2399.44 290.422 2408.9 266.299 2408.9 243.595C2408.9 198.66 2372.01 172.645 2347.41 172.645C2342.21 172.645 2337.01 174.064 2333.22 176.429L2393.77 135.278ZM2499.25 195.349C2499.25 262.042 2548.91 303.666 2580.13 291.368L2522.42 331.1C2491.68 320.694 2469.45 283.327 2469.45 238.865C2469.45 203.39 2484.11 172.172 2506.34 153.252C2501.61 166.496 2499.25 181.159 2499.25 195.349ZM2563.57 113.52C2594.32 124.399 2616.55 161.293 2616.55 205.755C2616.55 241.23 2601.89 272.448 2580.13 291.368C2584.39 278.124 2586.75 263.461 2586.75 249.271C2586.75 182.578 2537.09 140.954 2506.34 153.252L2563.57 113.52ZM2708.94 280.016C2708.94 302.72 2724.55 303.193 2735.9 295.625L2684.35 331.1C2668.26 328.262 2655.49 310.761 2655.49 289.949V164.604C2655.49 141.9 2639.41 141.427 2628.53 148.995L2680.09 113.52C2696.17 116.358 2708.94 133.859 2708.94 154.671V280.016ZM2753.4 113.52C2774.22 120.142 2791.72 135.751 2803.07 157.036L2759.08 187.308C2746.78 166.496 2728.81 151.36 2708 144.738L2753.4 113.52ZM2827.66 195.349C2827.66 263.461 2883 302.247 2916.11 289.949L2856.04 331.1C2822.45 320.694 2798.33 283.327 2798.33 238.865C2798.33 203.863 2812.52 172.172 2835.22 153.252C2830.02 166.496 2827.66 180.686 2827.66 195.349ZM2898.13 187.308C2882.52 160.347 2853.67 145.211 2835.22 153.252L2892.46 113.52C2913.27 120.142 2931.24 135.751 2942.6 157.036L2898.13 187.308ZM2989.4 7.51019e-05C3005.49 2.83809 3018.26 20.3391 3018.26 41.1511V160.82V280.016C3018.26 302.72 3033.87 303.193 3045.22 295.625L2993.66 331.1C2977.58 328.262 2964.81 310.761 2964.81 289.949V51.0841C2964.81 28.3801 2948.73 27.9071 2937.85 35.4751L2989.4 7.51019e-05ZM3116.17 154.671V332.046C3116.17 365.156 3108.6 393.063 3084.95 417.186C3066.03 436.106 3044.27 443.674 3038.6 443.201C3064.61 427.119 3062.72 390.698 3062.72 360.426V164.604C3062.72 142.373 3040.49 146.63 3018.26 160.82L3087.32 113.52C3103.4 116.358 3116.17 133.859 3116.17 154.671Z" fill="black"/>
</svg>
