<svg width="1776" height="230" viewBox="0 0 1776 230" fill="none" xmlns="http://www.w3.org/2000/svg">
<path d="M56.2842 149.506C58.2373 147.471 59.6615 144.786 60.5566 141.449C61.5332 138.113 62.0215 134.044 62.0215 129.242V65.2773L53.2324 70.0381V65.0332C58.4408 62.429 63.7305 59.4587 69.1016 56.1221C74.4727 52.7041 80.0065 48.9199 85.7031 44.7695V110.199C85.7031 119.965 83.5872 127.696 79.3555 133.393C75.1237 139.089 67.4333 144.46 56.2842 149.506ZM0.986328 40.9854C2.61393 28.2087 6.68294 18.972 13.1934 13.2754C19.7038 7.57878 29.6322 4.73047 42.9785 4.73047C51.6862 4.73047 63.9339 5.8291 79.7217 8.02637C95.5094 10.1423 106.943 11.2002 114.023 11.2002C119.883 11.2002 124.766 10.9154 128.672 10.3457C132.578 9.69466 136.118 8.67741 139.292 7.29395C136.769 13.0719 133.392 18.1175 129.16 22.4307C125.01 26.6624 120.046 29.999 114.268 32.4404V143.524C116.79 141.083 119.395 138.316 122.08 135.224C124.766 132.131 127.41 128.795 130.015 125.214C126.434 144.338 118.703 159.516 106.821 170.746C94.9398 181.895 80.7389 187.47 64.2188 187.47C45.9896 187.47 31.0156 181.326 19.2969 169.037C7.57812 156.667 1.71875 140.757 1.71875 121.308C1.71875 104.625 5.17741 89.3659 12.0947 75.5312C19.012 61.6152 28.8184 50.1813 41.5137 41.2295C34.9219 51.5648 30.1611 61.4118 27.2314 70.7705C24.3831 80.1292 22.959 89.9355 22.959 100.189C22.959 118.337 27.1501 132.904 35.5322 143.891C43.9144 154.796 54.9007 160.248 68.4912 160.248C75.083 160.248 81.9596 159.068 89.1211 156.708C96.2826 154.267 103.403 150.767 110.483 146.21V33.5391C107.065 34.4342 103.932 35.126 101.084 35.6143C98.2357 36.0212 95.6315 36.2246 93.2715 36.2246C89.2025 36.2246 79.5182 35.3701 64.2188 33.6611C49.0007 31.8708 35.9391 30.9756 25.0342 30.9756C18.6865 30.9756 13.6003 31.7894 9.77539 33.417C5.95052 34.9632 3.02083 37.486 0.986328 40.9854ZM141.123 172.455C141.53 168.549 142.873 165.253 145.151 162.567C147.43 159.8 150.726 157.44 155.039 155.487V43.5488C155.039 37.1198 154.469 32.4404 153.33 29.5107C152.272 26.4997 150.4 23.6514 147.715 20.9658C154.144 19.0127 160.166 16.4492 165.781 13.2754C171.478 10.1016 177.297 5.99186 183.237 0.946289C180.796 7.78223 179.006 14.9844 177.866 22.5527C176.808 30.1211 176.279 39.846 176.279 51.7275V89.2031L213.267 58.4414C216.278 63.7311 219.37 67.6374 222.544 70.1602C225.718 72.6829 229.136 73.9443 232.798 73.9443C234.344 73.9443 235.85 73.7002 237.314 73.2119C238.779 72.7236 240.407 71.9098 242.197 70.7705C241.79 74.3512 240.773 77.4844 239.146 80.1699C237.518 82.7741 235.076 85.2969 231.821 87.7383V151.947C231.821 156.749 232.147 160.696 232.798 163.788C233.53 166.881 234.67 169.932 236.216 172.943C233.774 172.292 231.455 171.804 229.258 171.479C227.142 171.153 225.067 170.99 223.032 170.99C218.719 170.99 214.976 172.089 211.802 174.286C208.628 176.483 207.041 178.965 207.041 181.732C207.041 184.092 209.442 188.08 214.243 193.695C219.126 199.392 221.567 204.926 221.567 210.297C221.567 215.749 219.858 220.307 216.44 223.969C213.022 227.631 208.669 229.625 203.379 229.95C205.739 227.916 207.529 225.434 208.75 222.504C209.971 219.656 210.581 216.319 210.581 212.494C210.581 207.123 209.401 201.06 207.041 194.306C204.681 187.632 203.501 183.686 203.501 182.465C203.501 180.105 204.6 177.338 206.797 174.164C209.076 170.99 210.215 167.776 210.215 164.521V91.2783C207.692 90.6273 205.291 89.4473 203.013 87.7383C200.734 85.9479 198.008 83.0182 194.834 78.9492L176.279 94.208V155.487C179.535 156.871 182.668 158.498 185.679 160.37C188.69 162.242 191.538 164.358 194.224 166.718C188.771 169.322 183.929 172.13 179.697 175.141C175.465 178.07 171.722 181.285 168.467 184.784C166.188 180.552 163.096 177.175 159.189 174.652C155.283 172.048 151.377 170.746 147.471 170.746C146.82 170.746 146.006 170.868 145.029 171.112C144.053 171.356 142.751 171.804 141.123 172.455ZM299.448 74.5547L292.002 76.5078V132.782L321.787 112.763L299.448 74.5547ZM257.212 175.019C257.212 170.543 258.27 166.718 260.386 163.544C262.583 160.37 265.798 157.929 270.029 156.22V96.7715C270.029 92.2142 269.46 88.2673 268.32 84.9307C267.181 81.5941 265.391 78.5423 262.949 75.7754H271.494C280.609 75.7754 289.683 74.1478 298.716 70.8926C307.83 67.556 314.992 63.3242 320.2 58.1973C322.642 66.1725 325.978 73.863 330.21 81.2686C334.442 88.6742 339.365 95.4287 344.98 101.532L292.002 137.543V153.9C298.594 154.714 304.575 156.057 309.946 157.929C315.399 159.8 320.078 162.16 323.984 165.009L330.942 159.516L333.262 162.445L306.04 186.493C300.913 182.017 295.216 178.559 288.95 176.117C282.765 173.676 276.458 172.455 270.029 172.455C267.751 172.455 265.553 172.659 263.438 173.065C261.403 173.472 259.328 174.123 257.212 175.019ZM504.771 159.027C506.724 160.085 508.555 161.265 510.264 162.567C511.973 163.869 513.641 165.253 515.269 166.718L522.104 164.521V137.543C520.64 136.811 519.093 136.241 517.466 135.834C515.92 135.427 514.373 135.224 512.827 135.224C511.606 135.224 509.165 135.753 505.503 136.811L504.893 136.933L504.771 159.027ZM504.893 133.515C507.09 133.026 508.84 132.701 510.142 132.538C511.525 132.375 512.664 132.294 513.56 132.294C514.536 132.294 515.716 132.416 517.1 132.66C518.483 132.823 520.151 133.067 522.104 133.393V113.739C520.802 114.065 519.5 114.309 518.198 114.472C516.978 114.634 515.35 114.716 513.315 114.716C512.746 114.716 511.647 114.634 510.02 114.472C508.473 114.309 506.764 114.065 504.893 113.739V133.515ZM504.771 109.955C506.724 110.525 508.433 110.932 509.897 111.176C511.444 111.42 512.827 111.542 514.048 111.542C515.431 111.542 516.774 111.42 518.076 111.176C519.378 110.85 520.721 110.362 522.104 109.711V99.9453C522.104 96.0391 521.494 93.2721 520.273 91.6445C519.134 90.0169 517.222 89.2031 514.536 89.2031C513.56 89.2031 512.786 89.2845 512.217 89.4473C511.647 89.5286 511.159 89.6507 510.752 89.8135L504.771 95.3066V109.955ZM462.534 146.21C465.301 143.362 467.295 140.635 468.516 138.031C469.736 135.346 470.347 132.497 470.347 129.486V63.4463C470.347 55.5524 471.689 49.0827 474.375 44.0371C477.061 38.9915 482.554 33.6611 490.854 28.0459L514.658 11.4443L515.024 11.2002C521.616 6.72428 525.645 4.48633 527.109 4.48633C531.341 4.48633 535.451 7.33464 539.438 13.0312C543.507 18.6465 545.542 25.3197 545.542 33.0508C545.542 43.2233 543.182 52.5007 538.462 60.8828C533.742 69.265 526.214 77.4437 515.879 85.4189C528.574 85.5817 536.631 86.8431 540.049 89.2031C543.548 91.4818 545.298 96.4053 545.298 103.974V156.952C545.298 160.289 545.501 162.812 545.908 164.521C546.396 166.229 547.088 167.694 547.983 168.915C545.623 168.59 543.223 168.305 540.781 168.061C538.421 167.816 536.183 167.694 534.067 167.694C524.953 167.694 517.262 169.322 510.996 172.577C504.811 175.832 499.603 180.959 495.371 187.958C490.244 183.726 484.71 180.634 478.77 178.681C472.91 176.728 466.115 175.751 458.384 175.751C452.199 175.751 446.38 176.646 440.928 178.437C435.557 180.146 429.86 182.994 423.838 186.981C430.186 176.809 438.283 168.752 448.13 162.812C458.058 156.789 468.109 153.778 478.281 153.778C483.001 153.778 487.152 154.104 490.732 154.755C494.395 155.325 497.935 156.342 501.353 157.807V76.752H504.771V90.3018C511.2 84.8493 515.92 78.9899 518.931 72.7236C522.023 66.4574 523.569 59.4587 523.569 51.7275C523.569 44.2406 522.43 37.9336 520.151 32.8066C517.954 27.5983 514.495 23.3258 509.775 19.9893L502.817 24.2617C499.318 26.459 496.714 29.1852 495.005 32.4404C493.377 35.6956 492.563 39.8053 492.563 44.7695V108.246C492.563 119.639 490.326 128.103 485.85 133.637C481.374 139.171 473.602 143.362 462.534 146.21ZM406.016 33.5391C408.132 24.5872 412.241 17.5072 418.345 12.2988C424.53 7.09049 431.854 4.48633 440.317 4.48633C444.793 4.48633 451.222 5.70703 459.604 8.14844C468.068 10.5898 474.456 11.8105 478.77 11.8105C482.432 11.8105 485.646 11.363 488.413 10.4678C491.261 9.49121 494.069 7.98568 496.836 5.95117C492.848 14.5775 487.396 21.21 480.479 25.8486C473.643 30.4873 465.83 32.8066 457.041 32.8066C452.972 32.8066 447.275 31.7487 439.951 29.6328C432.708 27.5169 427.337 26.459 423.838 26.459C420.094 26.459 416.799 27.0286 413.95 28.168C411.102 29.3073 408.457 31.0977 406.016 33.5391ZM431.04 163.544C432.912 160.696 434.255 157.807 435.068 154.877C435.882 151.866 436.289 148.244 436.289 144.013V107.514C435.964 107.432 435.597 107.392 435.19 107.392C433.481 107.147 432.179 107.025 431.284 107.025C428.436 107.025 426.198 107.717 424.57 109.101C422.943 110.484 421.844 112.6 421.274 115.448C419.972 113.495 419.036 111.42 418.467 109.223C417.897 107.025 417.612 104.381 417.612 101.288C417.612 95.9984 418.833 91.7666 421.274 88.5928C423.716 85.3376 426.89 83.71 430.796 83.71C432.017 83.71 432.952 83.7507 433.604 83.832C434.255 83.9134 434.906 84.0355 435.557 84.1982V80.292C435.557 70.1195 437.957 61.9408 442.759 55.7559C447.56 49.4896 455.332 44.5661 466.074 40.9854C463.307 44.3219 461.354 47.6178 460.215 50.873C459.157 54.1283 458.628 58.238 458.628 63.2021V128.266C458.628 135.508 456.39 141.978 451.914 147.675C447.52 153.29 440.562 158.58 431.04 163.544ZM626.475 158.051V92.0107C624.359 90.9528 622.487 89.61 620.859 87.9824C619.313 86.3548 617.767 84.1982 616.221 81.5127C612.314 83.3844 608.693 84.8086 605.356 85.7852C602.02 86.7617 599.009 87.25 596.323 87.25C593.882 87.25 591.44 86.8431 588.999 86.0293C586.558 85.2155 583.831 83.8727 580.82 82.001L617.319 128.51L614.023 130.951L599.009 111.786C596.323 115.611 594.37 119.354 593.149 123.017C591.929 126.597 591.318 130.422 591.318 134.491C591.318 142.222 593.719 148.733 598.521 154.022C603.322 159.312 610.076 162.812 618.784 164.521L626.475 158.051ZM627.573 162.201L603.525 184.54C593.19 181.122 585.052 176.117 579.111 169.525C573.252 162.852 570.322 155.528 570.322 147.553C570.322 139.822 572.601 132.538 577.158 125.702C581.797 118.785 588.267 113.048 596.567 108.49L570.566 75.5312H571.055C574.961 75.5312 579.071 74.1478 583.384 71.3809C587.778 68.5326 592.336 64.3415 597.056 58.8076C598.927 65.4808 601.165 70.5264 603.77 73.9443C606.374 77.2809 609.385 78.9492 612.803 78.9492C616.465 78.9492 620.33 77.3216 624.399 74.0664C628.55 70.7298 633.148 65.4808 638.193 58.3193C638.519 63.1208 639.943 66.9863 642.466 69.916C645.07 72.8457 648.325 74.3105 652.231 74.3105C652.964 74.3105 653.94 74.1478 655.161 73.8223C656.463 73.4967 657.806 73.0492 659.189 72.4795C658.701 74.8395 657.603 77.0775 655.894 79.1934C654.266 81.2279 651.825 83.4251 648.569 85.7852V142.548C648.569 149.384 649.749 154.348 652.109 157.44C654.469 160.451 658.254 161.957 663.462 161.957H666.025L647.471 185.028C642.018 182.587 637.705 179.617 634.531 176.117C631.439 172.618 629.119 167.979 627.573 162.201ZM709.727 152.802C713.958 154.348 717.539 156.342 720.469 158.783C723.48 161.225 726.003 164.195 728.037 167.694C730.723 166.881 733.368 166.107 735.972 165.375C738.576 164.643 741.058 164.032 743.418 163.544V90.3018C739.674 88.9183 736.501 87.3314 733.896 85.541C731.374 83.7507 729.136 81.472 727.183 78.7051C724.009 80.9837 718.394 83.6693 710.337 86.7617L709.727 87.0059V152.802ZM673.96 172.943C674.611 169.037 675.994 165.578 678.11 162.567C680.308 159.556 683.441 156.789 687.51 154.267V44.7695C687.51 37.8522 686.94 32.766 685.801 29.5107C684.661 26.2555 682.749 23.2852 680.063 20.5996C680.552 20.5996 681.081 20.6403 681.65 20.7217C682.301 20.7217 682.993 20.7217 683.726 20.7217C686.818 20.7217 691.782 19.2161 698.618 16.2051C705.454 13.1126 711.558 9.28776 716.929 4.73047C714.406 9.9388 712.575 15.2285 711.436 20.5996C710.296 25.8893 709.727 33.4577 709.727 43.3047V82.9775C715.83 80.4548 722.34 77.1182 729.258 72.9678C736.257 68.736 743.581 63.7311 751.23 57.9531C753.346 63.4056 755.991 67.5967 759.165 70.5264C762.42 73.3747 766.042 74.7988 770.029 74.7988C770.762 74.7988 772.145 74.5547 774.18 74.0664C774.749 73.9036 775.197 73.7816 775.522 73.7002C774.546 76.223 773.244 78.4609 771.616 80.4141C770.07 82.3672 768.117 84.2389 765.757 86.0293V144.013C765.757 148.082 766.164 151.988 766.978 155.731C767.791 159.475 769.134 163.585 771.006 168.061C766.693 167.41 763.478 167.003 761.362 166.84C759.246 166.596 757.375 166.474 755.747 166.474C746.47 166.474 737.843 168.02 729.868 171.112C721.893 174.205 713.836 179.088 705.698 185.761C702.199 181.448 698.333 178.111 694.102 175.751C689.951 173.391 685.76 172.211 681.528 172.211C680.389 172.211 679.209 172.292 677.988 172.455C676.768 172.536 675.425 172.699 673.96 172.943ZM823.252 153.9C829.437 154.307 835.337 155.487 840.952 157.44C846.567 159.394 851.328 161.916 855.234 165.009L862.192 159.271L864.756 162.201L837.534 186.493C831.024 181.61 824.92 178.03 819.224 175.751C813.527 173.391 807.871 172.211 802.256 172.211C799.896 172.211 797.576 172.455 795.298 172.943C793.019 173.432 790.659 174.205 788.218 175.263C788.218 171.031 789.276 167.369 791.392 164.276C793.507 161.103 796.641 158.498 800.791 156.464V96.5273C800.791 91.2376 800.262 87.1279 799.204 84.1982C798.228 81.2686 796.6 78.4609 794.321 75.7754C795.379 75.8568 796.478 75.9382 797.617 76.0195C798.838 76.0195 800.547 76.0195 802.744 76.0195C810.719 76.0195 818.898 74.4733 827.28 71.3809C835.744 68.207 842.295 64.2601 846.934 59.54C849.538 63.7718 852.467 67.027 855.723 69.3057C859.059 71.5843 862.477 72.7236 865.977 72.7236C867.035 72.7236 868.621 72.6016 870.737 72.3574C871.063 72.276 871.307 72.2354 871.47 72.2354C868.052 77.5251 864.308 81.5127 860.239 84.1982C856.252 86.8838 852.101 88.2266 847.788 88.2266C842.987 88.2266 838.877 87.0872 835.459 84.8086C832.041 82.4486 829.722 79.1934 828.501 75.043L823.252 76.752V153.9ZM913.584 152.558C917.816 154.104 921.396 156.098 924.326 158.539C927.337 160.98 929.86 163.951 931.895 167.45C933.604 166.881 935.597 166.311 937.876 165.741C940.236 165.172 943.451 164.439 947.52 163.544L947.642 90.0576C943.979 89.2438 940.684 87.7383 937.754 85.541C934.824 83.2624 931.854 80.0072 928.843 75.7754C927.866 76.0195 926.442 76.4264 924.57 76.9961C919.688 78.3796 916.025 79.3154 913.584 79.8037V152.558ZM877.817 172.943C878.468 169.037 879.852 165.578 881.968 162.567C884.165 159.556 887.298 156.789 891.367 154.267V97.2598C891.367 93.1094 890.92 89.488 890.024 86.3955C889.211 83.2217 887.827 80.0072 885.874 76.752C887.095 76.8333 888.438 76.9147 889.902 76.9961C891.449 76.9961 893.524 76.9961 896.128 76.9961C907.114 76.9961 917.572 75.4092 927.5 72.2354C937.51 68.9801 946.706 64.2194 955.088 57.9531C957.204 63.4056 959.849 67.5967 963.022 70.5264C966.278 73.3747 969.899 74.7988 973.887 74.7988C974.619 74.7988 976.003 74.5547 978.037 74.0664C978.607 73.9036 979.054 73.7816 979.38 73.7002C978.322 76.3857 977.02 78.7051 975.474 80.6582C973.927 82.6113 971.974 84.4017 969.614 86.0293V140.473C969.614 146.007 970.021 150.93 970.835 155.243C971.649 159.556 972.992 163.829 974.863 168.061C970.55 167.41 967.336 167.003 965.22 166.84C963.104 166.596 961.232 166.474 959.604 166.474C950.327 166.474 941.701 168.02 933.726 171.112C925.75 174.205 917.694 179.088 909.556 185.761C906.056 181.448 902.191 178.111 897.959 175.751C893.809 173.391 889.618 172.211 885.386 172.211C884.246 172.211 883.066 172.292 881.846 172.455C880.625 172.536 879.282 172.699 877.817 172.943ZM1027.11 153.9C1033.29 154.307 1039.19 155.487 1044.81 157.44C1050.42 159.394 1055.19 161.916 1059.09 165.009L1066.05 159.271L1068.61 162.201L1041.39 186.493C1034.88 181.61 1028.78 178.03 1023.08 175.751C1017.38 173.391 1011.73 172.211 1006.11 172.211C1003.75 172.211 1001.43 172.455 999.155 172.943C996.877 173.432 994.517 174.205 992.075 175.263C992.075 171.031 993.133 167.369 995.249 164.276C997.365 161.103 1000.5 158.498 1004.65 156.464V96.5273C1004.65 91.2376 1004.12 87.1279 1003.06 84.1982C1002.08 81.2686 1000.46 78.4609 998.179 75.7754C999.237 75.8568 1000.34 75.9382 1001.47 76.0195C1002.7 76.0195 1004.4 76.0195 1006.6 76.0195C1014.58 76.0195 1022.76 74.4733 1031.14 71.3809C1039.6 68.207 1046.15 64.2601 1050.79 59.54C1053.4 63.7718 1056.32 67.027 1059.58 69.3057C1062.92 71.5843 1066.33 72.7236 1069.83 72.7236C1070.89 72.7236 1072.48 72.6016 1074.59 72.3574C1074.92 72.276 1075.16 72.2354 1075.33 72.2354C1071.91 77.5251 1068.17 81.5127 1064.1 84.1982C1060.11 86.8838 1055.96 88.2266 1051.65 88.2266C1046.84 88.2266 1042.73 87.0872 1039.32 84.8086C1035.9 82.4486 1033.58 79.1934 1032.36 75.043L1027.11 76.752V153.9ZM1118.42 88.4707L1155.65 60.5166C1157.85 67.5967 1160.49 73.9443 1163.58 79.5596C1166.68 85.1748 1169.97 89.5693 1173.47 92.7432L1147.71 112.274C1150.73 114.716 1153.21 117.768 1155.16 121.43C1157.2 125.092 1159.03 130.382 1160.65 137.299C1162.93 146.413 1165.62 153.249 1168.71 157.807C1171.8 162.283 1175.3 164.521 1179.21 164.521C1180.02 164.521 1180.88 164.358 1181.77 164.032C1182.67 163.625 1183.6 163.056 1184.58 162.323L1186.66 165.009C1181.45 168.752 1176.85 172.618 1172.86 176.605C1168.96 180.512 1165.98 184.215 1163.95 187.714C1158.58 186.168 1154.35 182.953 1151.25 178.07C1148.16 173.106 1145.56 165.334 1143.44 154.755C1141.81 146.617 1140.02 140.31 1138.07 135.834C1136.2 131.358 1133.84 127.899 1130.99 125.458L1118.42 135.712V158.051C1121.51 159.353 1124.28 160.899 1126.72 162.689C1129.16 164.398 1131.4 166.433 1133.43 168.793C1129.61 170.665 1125.86 172.943 1122.2 175.629C1118.62 178.314 1114.72 181.692 1110.48 185.761C1105.84 180.797 1101.74 177.379 1098.15 175.507C1094.65 173.635 1090.83 172.699 1086.68 172.699C1085.78 172.699 1085.09 172.74 1084.6 172.821C1084.12 172.821 1083.67 172.862 1083.26 172.943C1084.08 169.688 1085.58 166.84 1087.78 164.398C1089.98 161.876 1092.86 159.76 1096.45 158.051V43.0605C1096.45 37.1198 1095.88 32.6032 1094.74 29.5107C1093.6 26.3369 1091.68 23.3258 1089 20.4775C1089.49 20.5589 1090.02 20.6403 1090.59 20.7217C1091.24 20.7217 1091.93 20.7217 1092.66 20.7217C1095.75 20.7217 1100.68 19.2161 1107.43 16.2051C1114.19 13.1126 1120.29 9.28776 1125.74 4.73047C1123.3 9.9388 1121.47 15.1064 1120.25 20.2334C1119.03 25.3604 1118.42 30.4466 1118.42 35.4922V88.4707ZM1118.42 130.463L1153.7 102.997C1151.09 98.9281 1148.65 94.737 1146.37 90.4238C1144.09 86.1107 1142.02 81.7161 1140.15 77.2402L1118.42 92.9873V130.463ZM1308.97 149.506C1310.92 147.471 1312.35 144.786 1313.24 141.449C1314.22 138.113 1314.71 134.044 1314.71 129.242V65.2773L1305.92 70.0381V65.0332C1311.13 62.429 1316.42 59.4587 1321.79 56.1221C1327.16 52.7041 1332.69 48.9199 1338.39 44.7695V110.199C1338.39 119.965 1336.27 127.696 1332.04 133.393C1327.81 139.089 1320.12 144.46 1308.97 149.506ZM1253.67 40.9854C1255.3 28.2087 1259.37 18.972 1265.88 13.2754C1272.39 7.57878 1282.32 4.73047 1295.66 4.73047C1304.37 4.73047 1316.62 5.8291 1332.41 8.02637C1348.19 10.1423 1359.63 11.2002 1366.71 11.2002C1372.57 11.2002 1377.45 10.9154 1381.36 10.3457C1385.26 9.69466 1388.8 8.67741 1391.98 7.29395C1389.45 13.0719 1386.08 18.1175 1381.85 22.4307C1377.7 26.6624 1372.73 29.999 1366.95 32.4404V143.524C1369.48 141.083 1372.08 138.316 1374.77 135.224C1377.45 132.131 1380.1 128.795 1382.7 125.214C1379.12 144.338 1371.39 159.516 1359.51 170.746C1347.63 181.895 1333.42 187.47 1316.9 187.47C1298.68 187.47 1283.7 181.326 1271.98 169.037C1260.26 156.667 1254.4 140.757 1254.4 121.308C1254.4 104.625 1257.86 89.3659 1264.78 75.5312C1271.7 61.6152 1281.5 50.1813 1294.2 41.2295C1287.61 51.5648 1282.85 61.4118 1279.92 70.7705C1277.07 80.1292 1275.64 89.9355 1275.64 100.189C1275.64 118.337 1279.84 132.904 1288.22 143.891C1296.6 154.796 1307.59 160.248 1321.18 160.248C1327.77 160.248 1334.65 159.068 1341.81 156.708C1348.97 154.267 1356.09 150.767 1363.17 146.21V33.5391C1359.75 34.4342 1356.62 35.126 1353.77 35.6143C1350.92 36.0212 1348.32 36.2246 1345.96 36.2246C1341.89 36.2246 1332.2 35.3701 1316.9 33.6611C1301.69 31.8708 1288.62 30.9756 1277.72 30.9756C1271.37 30.9756 1266.29 31.7894 1262.46 33.417C1258.64 34.9632 1255.71 37.486 1253.67 40.9854ZM1424.81 152.558C1429.05 154.104 1432.63 156.098 1435.56 158.539C1438.57 160.98 1441.09 163.951 1443.12 167.45C1444.83 166.881 1446.83 166.311 1449.11 165.741C1451.47 165.172 1454.68 164.439 1458.75 163.544L1458.87 90.0576C1455.21 89.2438 1451.91 87.7383 1448.98 85.541C1446.05 83.2624 1443.08 80.0072 1440.07 75.7754C1439.1 76.0195 1437.67 76.4264 1435.8 76.9961C1430.92 78.3796 1427.26 79.3154 1424.81 79.8037V152.558ZM1389.05 172.943C1389.7 169.037 1391.08 165.578 1393.2 162.567C1395.4 159.556 1398.53 156.789 1402.6 154.267V97.2598C1402.6 93.1094 1402.15 89.488 1401.25 86.3955C1400.44 83.2217 1399.06 80.0072 1397.1 76.752C1398.33 76.8333 1399.67 76.9147 1401.13 76.9961C1402.68 76.9961 1404.75 76.9961 1407.36 76.9961C1418.34 76.9961 1428.8 75.4092 1438.73 72.2354C1448.74 68.9801 1457.94 64.2194 1466.32 57.9531C1468.43 63.4056 1471.08 67.5967 1474.25 70.5264C1477.51 73.3747 1481.13 74.7988 1485.12 74.7988C1485.85 74.7988 1487.23 74.5547 1489.27 74.0664C1489.84 73.9036 1490.28 73.7816 1490.61 73.7002C1489.55 76.3857 1488.25 78.7051 1486.7 80.6582C1485.16 82.6113 1483.2 84.4017 1480.84 86.0293V140.473C1480.84 146.007 1481.25 150.93 1482.07 155.243C1482.88 159.556 1484.22 163.829 1486.09 168.061C1481.78 167.41 1478.57 167.003 1476.45 166.84C1474.33 166.596 1472.46 166.474 1470.83 166.474C1461.56 166.474 1452.93 168.02 1444.96 171.112C1436.98 174.205 1428.92 179.088 1420.79 185.761C1417.29 181.448 1413.42 178.111 1409.19 175.751C1405.04 173.391 1400.85 172.211 1396.62 172.211C1395.48 172.211 1394.3 172.292 1393.08 172.455C1391.86 172.536 1390.51 172.699 1389.05 172.943ZM1533.33 184.784C1530.08 179.576 1525.97 175.507 1521.01 172.577C1516.12 169.566 1511.08 168.061 1505.87 168.061C1504.81 168.061 1504 168.061 1503.43 168.061C1502.86 168.061 1502.25 168.101 1501.6 168.183C1503.22 165.416 1505.26 162.974 1507.7 160.858C1510.14 158.743 1513.11 156.871 1516.61 155.243V101.532C1516.61 94.208 1515.47 89.3659 1513.19 87.0059C1511 84.6458 1506.48 83.1403 1499.64 82.4893C1504.85 79.4782 1509.49 75.9382 1513.56 71.8691C1517.71 67.7188 1521.29 62.9987 1524.3 57.709C1529.27 60.8828 1532.89 64.8704 1535.17 69.6719C1537.44 74.3919 1538.58 80.4954 1538.58 87.9824L1561.04 57.709C1563 62.9173 1564.91 66.5794 1566.78 68.6953C1568.65 70.7298 1570.93 71.7471 1573.62 71.7471C1574.84 71.7471 1576.06 71.5029 1577.28 71.0146C1578.58 70.5264 1579.93 69.7533 1581.31 68.6953C1580.66 75.2057 1578.58 80.5361 1575.08 84.6865C1571.67 88.7555 1567.76 90.79 1563.36 90.79C1560.35 90.79 1557.5 90.0576 1554.82 88.5928C1552.22 87.0465 1549.81 84.7679 1547.62 81.7568L1538.58 93.9639V154.999C1541.92 156.138 1544.77 157.359 1547.13 158.661C1549.49 159.963 1551.48 161.428 1553.11 163.056L1557.63 159.76L1560.07 162.201C1553.88 166.27 1548.55 170.176 1544.08 173.92C1539.6 177.663 1536.02 181.285 1533.33 184.784ZM1619.39 153.9C1625.58 154.307 1631.48 155.487 1637.09 157.44C1642.71 159.394 1647.47 161.916 1651.38 165.009L1658.33 159.271L1660.9 162.201L1633.68 186.493C1627.17 181.61 1621.06 178.03 1615.37 175.751C1609.67 173.391 1604.01 172.211 1598.4 172.211C1596.04 172.211 1593.72 172.455 1591.44 172.943C1589.16 173.432 1586.8 174.205 1584.36 175.263C1584.36 171.031 1585.42 167.369 1587.53 164.276C1589.65 161.103 1592.78 158.498 1596.93 156.464V96.5273C1596.93 91.2376 1596.4 87.1279 1595.35 84.1982C1594.37 81.2686 1592.74 78.4609 1590.46 75.7754C1591.52 75.8568 1592.62 75.9382 1593.76 76.0195C1594.98 76.0195 1596.69 76.0195 1598.89 76.0195C1606.86 76.0195 1615.04 74.4733 1623.42 71.3809C1631.89 68.207 1638.44 64.2601 1643.08 59.54C1645.68 63.7718 1648.61 67.027 1651.87 69.3057C1655.2 71.5843 1658.62 72.7236 1662.12 72.7236C1663.18 72.7236 1664.76 72.6016 1666.88 72.3574C1667.21 72.276 1667.45 72.2354 1667.61 72.2354C1664.19 77.5251 1660.45 81.5127 1656.38 84.1982C1652.39 86.8838 1648.24 88.2266 1643.93 88.2266C1639.13 88.2266 1635.02 87.0872 1631.6 84.8086C1628.18 82.4486 1625.86 79.1934 1624.64 75.043L1619.39 76.752V153.9ZM1674.33 172.455C1674.73 168.549 1676.08 165.253 1678.35 162.567C1680.63 159.8 1683.93 157.44 1688.24 155.487V43.5488C1688.24 37.1198 1687.67 32.4404 1686.53 29.5107C1685.48 26.4997 1683.6 23.6514 1680.92 20.9658C1687.35 19.0127 1693.37 16.4492 1698.98 13.2754C1704.68 10.1016 1710.5 5.99186 1716.44 0.946289C1714 7.78223 1712.21 14.9844 1711.07 22.5527C1710.01 30.1211 1709.48 39.846 1709.48 51.7275V89.2031L1746.47 58.4414C1749.48 63.7311 1752.57 67.6374 1755.75 70.1602C1758.92 72.6829 1762.34 73.9443 1766 73.9443C1767.55 73.9443 1769.05 73.7002 1770.52 73.2119C1771.98 72.7236 1773.61 71.9098 1775.4 70.7705C1774.99 74.3512 1773.98 77.4844 1772.35 80.1699C1770.72 82.7741 1768.28 85.2969 1765.02 87.7383V151.947C1765.02 156.749 1765.35 160.696 1766 163.788C1766.73 166.881 1767.87 169.932 1769.42 172.943C1766.98 172.292 1764.66 171.804 1762.46 171.479C1760.35 171.153 1758.27 170.99 1756.24 170.99C1751.92 170.99 1748.18 172.089 1745 174.286C1741.83 176.483 1740.24 178.965 1740.24 181.732C1740.24 184.092 1742.64 188.08 1747.45 193.695C1752.33 199.392 1754.77 204.926 1754.77 210.297C1754.77 215.749 1753.06 220.307 1749.64 223.969C1746.23 227.631 1741.87 229.625 1736.58 229.95C1738.94 227.916 1740.73 225.434 1741.95 222.504C1743.17 219.656 1743.78 216.319 1743.78 212.494C1743.78 207.123 1742.6 201.06 1740.24 194.306C1737.88 187.632 1736.7 183.686 1736.7 182.465C1736.7 180.105 1737.8 177.338 1740 174.164C1742.28 170.99 1743.42 167.776 1743.42 164.521V91.2783C1740.9 90.6273 1738.49 89.4473 1736.22 87.7383C1733.94 85.9479 1731.21 83.0182 1728.04 78.9492L1709.48 94.208V155.487C1712.74 156.871 1715.87 158.498 1718.88 160.37C1721.89 162.242 1724.74 164.358 1727.43 166.718C1721.97 169.322 1717.13 172.13 1712.9 175.141C1708.67 178.07 1704.93 181.285 1701.67 184.784C1699.39 180.552 1696.3 177.175 1692.39 174.652C1688.49 172.048 1684.58 170.746 1680.67 170.746C1680.02 170.746 1679.21 170.868 1678.23 171.112C1677.26 171.356 1675.95 171.804 1674.33 172.455Z" fill="black"/>
</svg>
